<svg width="109" height="47" viewBox="0 0 109 47" fill="none" xmlns="http://www.w3.org/2000/svg">
<path d="M108.343 46.5303L87.9286 8.55336L71.0499 0L54.1713 8.55336L37.2927 0L20.414 8.55336L0 46.5303L27.0286 32.959L54.1713 46.7584L81.314 32.959L108.343 46.5303ZM27.0286 29.1955L25.6601 29.8797L7.98314 38.7752L12.659 29.9938C12.773 30.1078 13.0011 30.1078 13.2292 30.2219L13.6854 29.1955C13.5713 29.0814 13.3432 29.0814 13.2292 28.9674L22.809 11.1764L35.9241 4.56179L27.0286 29.1955ZM54.1713 21.8966L53.373 21.6685C53.0308 22.4668 52.5747 23.2651 52.3466 23.8354L53.6011 24.2915C53.7151 24.0635 54.1713 23.8354 54.1713 23.6073V42.5387L28.8533 29.8797L28.1691 29.6517L34.8977 10.7202L35.0118 11.6326C35.696 11.5185 36.2663 11.5185 36.8365 11.5185H37.1786V10.3781C36.4943 10.3781 35.8101 10.3781 35.0118 10.4921L37.4067 3.87753L39.3455 4.78988L53.2589 11.6326L54.2853 11.9747V21.8966H54.1713ZM79.8314 29.8797L77.4364 31.2483H77.6645L55.3117 42.7668V19.8438V20.0719C55.6539 19.3876 55.882 18.7034 56.2241 18.1331L55.6539 17.4489C55.4258 17.791 55.4258 18.0191 55.4258 18.3612V12.2028L56.1101 11.6326L71.0499 3.99157L80.4016 29.7657L79.8314 29.8797ZM81.1999 29.1955L72.0763 4.44775L85.5336 11.2904L100.359 38.7752L82.6825 29.8797L81.1999 29.1955Z" fill="#094A86"/>
<path d="M70.0235 17.3348L67.5145 22.4669L62.2685 20.3L60.7859 23.2652L66.032 25.432L63.523 30.45L66.7162 31.7045L69.2252 26.6865L74.4713 28.8534L75.9538 25.7742L70.7078 23.7213L73.2168 18.7034L70.0235 17.3348Z" fill="#094A86"/>
<path d="M39.5736 10.8342L39.1174 11.8606C39.5736 12.0887 39.9157 12.3168 40.2579 12.6589C40.3719 12.773 40.486 13.0011 40.6 13.1151L41.3983 12.3168C41.2843 12.2028 41.1702 11.9747 40.9422 11.8606C40.7141 11.4045 40.1438 11.0623 39.5736 10.8342Z" fill="#094A86"/>
<path d="M23.7213 27.9409L24.2915 28.8533C24.9758 28.3971 25.546 27.8269 26.1163 27.3707L25.3179 26.5724C24.8618 27.0286 24.2915 27.4847 23.7213 27.9409Z" fill="#094A86"/>
<path d="M43.1089 19.7298C43.1089 20.3 43.1089 20.8702 42.9949 21.3264L44.0213 21.5545C44.1353 20.9843 44.1353 20.3 44.1353 19.7298C44.1353 19.5017 44.1353 19.2736 44.1353 19.0455L42.9949 19.1596C43.1089 19.3877 43.1089 19.5017 43.1089 19.7298Z" fill="#094A86"/>
<path d="M26.6865 24.8617L27.5989 25.546C28.0551 24.7477 28.3972 23.9494 28.5112 23.1511L27.4848 22.923C27.3708 23.6072 27.1427 24.1775 26.6865 24.8617Z" fill="#094A86"/>
<path d="M32.6168 11.0624C31.8185 11.2905 31.0202 11.6326 30.45 12.0888L31.0202 13.1152C31.5904 12.773 32.2747 12.545 32.9589 12.2028L32.6168 11.0624Z" fill="#094A86"/>
<path d="M28.2831 20.6421C28.169 20.0719 28.055 19.5017 28.055 18.8174C28.055 18.7033 28.055 18.5893 28.055 18.4753L26.9146 18.3612C26.9146 18.4753 26.9146 18.7033 26.9146 18.8174C26.9146 19.5017 27.0286 20.1859 27.1426 20.8702L28.2831 20.6421Z" fill="#094A86"/>
<path d="M15.6242 29.8798L15.3961 31.0202C16.1944 31.1343 16.8787 31.2483 17.677 31.2483V30.1079C16.9927 30.1079 16.3085 29.9938 15.6242 29.8798Z" fill="#094A86"/>
<path d="M27.4849 15.9663L28.5113 16.3085C28.7394 15.6242 29.0815 14.9399 29.5377 14.3697L28.6253 13.6854C28.1691 14.3697 27.827 15.168 27.4849 15.9663Z" fill="#094A86"/>
<path d="M19.9579 29.7657H19.8439L20.072 30.9061H20.3001C20.9843 30.678 21.6686 30.45 22.3529 30.1078L21.7826 29.0814C21.2124 29.4236 20.6422 29.6516 19.9579 29.7657Z" fill="#094A86"/>
<path d="M66.032 16.8786L66.9443 16.1943C66.4882 15.5101 65.9179 14.9399 65.2337 14.3696L64.6635 15.396C65.2337 15.8522 65.6899 16.3084 66.032 16.8786Z" fill="#094A86"/>
<path d="M56.4521 15.5101L57.2505 16.3084C57.8207 15.7382 58.2769 15.282 58.8471 14.9399L58.2769 13.9135C57.7066 14.2556 57.0224 14.8258 56.4521 15.5101Z" fill="#094A86"/>
<path d="M50.0657 27.7129L50.864 28.5112C51.4342 27.941 51.8904 27.2567 52.3466 26.5724L51.4342 26.0022C50.978 26.5724 50.5219 27.1426 50.0657 27.7129Z" fill="#094A86"/>
<path d="M61.1281 14.2556C61.6983 14.2556 62.2685 14.3696 62.8387 14.4837L63.0668 13.3432C62.4966 13.2292 61.8123 13.1151 61.1281 13.0011C61.014 13.0011 61.014 13.0011 60.9 13.0011C60.7859 13.0011 60.7859 13.0011 60.6719 13.0011V14.1415H60.7859C60.9 14.2556 61.014 14.2556 61.1281 14.2556Z" fill="#094A86"/>
<path d="M47.5567 29.6516C47.3286 29.7657 47.1006 29.8797 46.7584 29.8797V31.0202C47.3286 31.0202 47.7848 30.7921 48.127 30.564C48.4691 30.3359 48.6972 30.1078 49.0393 29.9938L48.3551 29.0814C48.127 29.3095 47.7848 29.5376 47.5567 29.6516Z" fill="#094A86"/>
<path d="M43.3371 24.0635V23.9495L42.8809 23.7214L42.3107 23.6073C41.9685 24.4056 41.8545 25.204 41.8545 26.0023L42.9949 25.8882C42.9949 25.318 43.109 24.6337 43.3371 24.0635Z" fill="#094A86"/>
<path d="M42.8809 23.7213L43.4511 23.9494L42.8809 23.7213Z" fill="#094A86"/>
<path d="M43.7932 16.6505C43.5651 15.8522 43.223 15.1679 42.8809 14.3696L41.9685 14.9399C42.3106 15.6241 42.6528 16.3084 42.7668 16.9927L43.7932 16.6505Z" fill="#094A86"/>
<path d="M43.5652 27.941L42.6528 28.5113C43.109 29.3096 43.6792 29.8798 44.3635 30.336L44.9337 29.3096C44.3635 29.0815 43.9073 28.5113 43.5652 27.941Z" fill="#094A86"/>
<path d="M66.9443 19.9579H68.0848C68.0848 19.6157 68.0848 19.1595 67.9707 18.7034L66.9443 18.9315C66.9443 19.2736 66.9443 19.6157 66.9443 19.9579Z" fill="#094A86"/>
</svg>
