<svg width="189" height="96" viewBox="0 0 189 96" fill="none" xmlns="http://www.w3.org/2000/svg">
<path d="M148.838 36.4407L130.29 6.69865L114.954 0L99.6188 6.69865L84.2832 0L68.9477 6.69865L50.4 36.4407L74.9576 25.8122L99.6188 36.6193L124.28 25.8122L148.838 36.4407ZM74.9576 22.8647L73.7142 23.4006L57.6533 30.3672L61.9017 23.4899C62.0053 23.5793 62.2125 23.5793 62.4198 23.6686L62.8342 22.8647C62.7306 22.7754 62.5234 22.7754 62.4198 22.6861L71.1237 8.75291L83.0398 3.57262L74.9576 22.8647ZM99.6188 17.1486L98.8934 16.9699C98.5826 17.5951 98.1681 18.2203 97.9609 18.6669L99.1007 19.0242C99.2043 18.8455 99.6188 18.6669 99.6188 18.4883V33.3146L76.6155 23.4006L75.9938 23.222L82.1073 8.39565L82.2109 9.11017C82.8326 9.02086 83.3507 9.02085 83.8688 9.02085H84.1796V8.1277C83.5579 8.1277 82.9362 8.1277 82.2109 8.21702L84.3869 3.03672L86.1484 3.75125L98.7898 9.11017L99.7224 9.37812V17.1486H99.6188ZM122.933 23.4006L120.757 24.4724H120.964L100.655 33.4933V15.5409V15.7195C100.966 15.1836 101.173 14.6477 101.484 14.2011L100.966 13.6653C100.759 13.9332 100.759 14.1118 100.759 14.3798V9.55675L101.38 9.11017L114.954 3.12604L123.451 23.3113L122.933 23.4006ZM124.176 22.8647L115.887 3.4833L128.114 8.84223L141.584 30.3672L125.523 23.4006L124.176 22.8647Z" fill="#046E85"/>
<path d="M114.022 13.576L111.742 17.5952L106.976 15.8982L105.629 18.2204L110.395 19.9174L108.115 23.8473L111.017 24.8297L113.296 20.8999L118.063 22.5968L119.41 20.1853L114.643 18.5776L116.923 14.6478L114.022 13.576Z" fill="#046E85"/>
<path d="M86.3555 8.48492L85.941 9.28876C86.3555 9.4674 86.6664 9.64602 86.9772 9.91397C87.0808 10.0033 87.1845 10.1819 87.2881 10.2712L88.0134 9.64602C87.9098 9.55671 87.8062 9.37808 87.5989 9.28876C87.3917 8.9315 86.8736 8.66356 86.3555 8.48492Z" fill="#046E85"/>
<path d="M71.9525 21.8822L72.4706 22.5967C73.0923 22.2395 73.6104 21.7929 74.1285 21.4356L73.4032 20.8104C72.9887 21.1677 72.4706 21.5249 71.9525 21.8822Z" fill="#046E85"/>
<path d="M89.5675 15.4515C89.5675 15.8981 89.5675 16.3447 89.4639 16.702L90.3964 16.8806C90.5 16.434 90.5001 15.8981 90.5001 15.4515C90.5001 15.2729 90.5001 15.0943 90.5001 14.9156L89.4639 15.005C89.5675 15.1836 89.5675 15.2729 89.5675 15.4515Z" fill="#046E85"/>
<path d="M74.6466 19.4708L75.4756 20.0066C75.89 19.3814 76.2009 18.7562 76.3045 18.131L75.3719 17.9524C75.2683 18.4883 75.0611 18.9349 74.6466 19.4708Z" fill="#046E85"/>
<path d="M80.0348 8.66357C79.3095 8.84221 78.5841 9.11015 78.066 9.46741L78.5841 10.2713C79.1022 10.0033 79.7239 9.82467 80.3456 9.55673L80.0348 8.66357Z" fill="#046E85"/>
<path d="M76.0973 16.1661C75.9937 15.7195 75.8901 15.2729 75.8901 14.737C75.8901 14.6477 75.8901 14.5584 75.8901 14.4691L74.8539 14.3798C74.8539 14.4691 74.8539 14.6477 74.8539 14.737C74.8539 15.2729 74.9575 15.8088 75.0611 16.3447L76.0973 16.1661Z" fill="#046E85"/>
<path d="M64.5955 23.4007L64.3883 24.2938C65.1136 24.3832 65.7353 24.4725 66.4607 24.4725V23.5793C65.839 23.5793 65.2173 23.49 64.5955 23.4007Z" fill="#046E85"/>
<path d="M75.3718 12.5041L76.3044 12.7721C76.5116 12.2362 76.8225 11.7003 77.237 11.2537L76.408 10.7178C75.9935 11.2537 75.6827 11.8789 75.3718 12.5041Z" fill="#046E85"/>
<path d="M68.5331 23.3113H68.4294L68.6367 24.2044H68.8439C69.4656 24.0258 70.0873 23.8472 70.709 23.5792L70.191 22.7754C69.6729 23.0433 69.1548 23.222 68.5331 23.3113Z" fill="#046E85"/>
<path d="M110.395 13.2187L111.224 12.6828C110.809 12.1469 110.291 11.7004 109.67 11.2538L109.152 12.0576C109.67 12.4149 110.084 12.7721 110.395 13.2187Z" fill="#046E85"/>
<path d="M101.691 12.1469L102.416 12.7721C102.934 12.3255 103.349 11.9683 103.867 11.7003L103.349 10.8965C102.831 11.1644 102.209 11.611 101.691 12.1469Z" fill="#046E85"/>
<path d="M95.8884 21.7037L96.6138 22.3289C97.1318 21.8823 97.5463 21.3464 97.9608 20.8105L97.1318 20.364C96.7174 20.8105 96.3029 21.2571 95.8884 21.7037Z" fill="#046E85"/>
<path d="M105.939 11.1644C106.457 11.1644 106.975 11.2537 107.494 11.343L107.701 10.4499C107.183 10.3606 106.561 10.2713 105.939 10.1819C105.836 10.1819 105.836 10.1819 105.732 10.1819C105.628 10.1819 105.628 10.1819 105.525 10.1819V11.0751H105.628C105.732 11.1644 105.836 11.1644 105.939 11.1644Z" fill="#046E85"/>
<path d="M93.6088 23.222C93.4015 23.3113 93.1943 23.4006 92.8834 23.4006V24.2938C93.4015 24.2938 93.816 24.1151 94.1268 23.9365C94.4377 23.7579 94.6449 23.5792 94.9558 23.4899L94.3341 22.7754C94.1268 22.954 93.816 23.1327 93.6088 23.222Z" fill="#046E85"/>
<path d="M89.7748 18.8456V18.7562L89.3603 18.5776L88.8422 18.4883C88.5314 19.1135 88.4277 19.7387 88.4277 20.3639L89.4639 20.2746C89.4639 19.828 89.5675 19.2921 89.7748 18.8456Z" fill="#046E85"/>
<path d="M89.3604 18.5776L89.8784 18.7562L89.3604 18.5776Z" fill="#046E85"/>
<path d="M90.1894 13.0401C89.9822 12.4149 89.6713 11.879 89.3604 11.2538L88.5315 11.7004C88.8423 12.2363 89.1532 12.7721 89.2568 13.308L90.1894 13.0401Z" fill="#046E85"/>
<path d="M89.982 21.8823L89.1531 22.3289C89.5675 22.9541 90.0856 23.4007 90.7074 23.7579L91.2254 22.9541C90.7074 22.7755 90.2929 22.3289 89.982 21.8823Z" fill="#046E85"/>
<path d="M111.224 15.6302H112.26C112.26 15.3622 112.26 15.005 112.156 14.6477L111.224 14.8263C111.224 15.0943 111.224 15.3622 111.224 15.6302Z" fill="#046E85"/>
<path d="M28.3531 21.2099C27.8464 22.6951 27.9477 24.6171 26.7315 25.4907C26.3261 30.2084 23.6908 34.7513 22.6773 38.9448C25.0084 39.2069 28.1504 39.1195 30.6843 39.0321C36.7656 39.8184 44.1644 38.6827 50.1444 41.5657C49.6376 41.7404 49.2322 41.4783 48.8267 41.7404C41.2252 39.3816 30.5829 40.5173 23.0827 39.5563C22.5759 39.6437 22.1705 39.9931 22.0692 40.5173C22.0692 40.9541 23.0827 40.6047 23.2854 41.0415C23.3868 40.6921 23.4881 40.2552 23.6908 40.3426C23.6908 40.7794 24.9071 41.1289 25.3125 40.5173C26.4274 40.9541 27.2382 40.6047 28.1504 40.6047C28.4545 40.692 28.3531 41.0415 28.5559 41.2162C28.8599 41.2162 28.9613 41.1289 28.9613 41.0415C29.164 41.0415 29.0626 41.2162 29.164 41.2162C29.468 41.2162 29.2653 40.8668 29.0626 40.8668C29.0626 40.6047 29.468 40.8668 29.468 41.0415C29.7721 40.9541 29.3667 40.692 29.468 40.5173C30.6843 41.8278 32.8127 40.7794 34.2317 41.391C34.3331 41.391 34.3331 41.3036 34.3331 41.1289C34.9412 41.4783 35.0425 40.9541 35.752 41.3036C36.0561 41.0415 35.1439 41.0415 35.1439 40.6921C35.5493 40.8668 36.1574 40.7794 36.2588 40.7794C36.5629 41.2162 36.0561 40.7794 36.0561 41.0415C37.3737 41.8278 39.1981 41.0415 40.617 41.5657C40.9211 41.4783 41.1238 41.3036 41.2252 41.0415C41.5292 41.1289 41.2252 41.7404 41.7319 41.6531C42.036 41.5657 41.5292 41.391 41.6306 41.1289C41.9346 41.4783 42.5428 41.7404 42.3401 42.1772C42.9482 42.1772 42.7455 42.0025 42.7455 41.6531C43.1509 42.0025 43.6577 41.391 43.759 41.7404C44.0631 41.7404 43.8604 41.391 43.9617 41.2162C44.7726 41.7404 46.4956 41.0415 48.0159 41.7404C47.0024 42.0025 45.8875 42.0899 44.6712 41.7404C44.2658 41.9151 44.3671 42.5267 43.759 42.4393C43.3536 42.5267 43.455 42.0899 43.3536 41.9151C43.0495 42.5267 41.6306 42.0025 41.7319 42.7014C41.2252 42.7888 41.5292 42.1772 41.1238 42.1772C41.1238 42.7014 40.8197 42.4393 40.1103 42.6141C40.1103 42.352 40.313 42.352 40.5157 42.352C40.5157 42.0899 39.8062 42.0025 40.0089 42.4393C39.7048 42.352 39.8062 42.0025 39.2994 42.0899C38.894 42.0899 38.894 42.352 38.6913 42.6141C33.0154 42.0025 25.8193 42.1772 21.6637 42.352C21.157 42.5267 21.461 43.4003 20.8529 43.4003C20.8529 45.9339 19.0285 48.2054 18.6231 50.6515C17.2041 54.1461 15.1771 58.689 13.6567 62.3583C11.6297 67.4254 7.57547 70.7453 6.86599 75.9871C6.86599 77.2102 6.86599 78.2586 6.46057 79.4817C6.56193 80.9668 6.66328 82.6267 6.25786 84.1119C6.35922 88.3054 6.76464 93.1104 10.1093 95.5566C5.14296 95.0324 4.02807 90.9263 3.21723 87.257C3.01452 85.335 2.6091 82.5394 2.91317 80.3553C3.21723 80.3553 3.01452 80.7047 3.31858 80.6174C3.31858 79.9185 3.11587 78.9575 3.52129 78.5206C2.91317 78.7827 3.21723 79.3069 3.01452 79.6564C3.01452 78.0838 2.81181 76.5986 3.62265 75.3755C3.52129 74.1524 3.724 72.6673 2.81181 71.6189C3.31858 71.0947 3.62265 70.3958 4.23077 69.959C5.75109 59.9995 8.08224 52.6609 10.9202 43.4003C7.47412 42.8761 3.21723 45.4971 0.176595 43.7498C-0.330178 41.8278 0.176594 39.6437 2.71046 40.1679C5.44703 39.5563 8.79173 39.5563 12.3391 39.1195C13.9608 34.7513 15.7852 28.9853 17.6096 24.0055C19.5353 18.8511 20.6502 13.085 25.1098 10.1147C29.0626 10.3768 29.6708 14.2208 28.5559 17.5406C28.9613 17.8901 28.9613 17.9774 28.8599 18.589C29.0626 18.589 28.9613 18.2395 29.0626 18.1521C29.5694 19.2005 28.1504 20.0742 28.4545 20.9478C28.3531 20.9478 28.3531 20.8604 28.1504 20.8604C28.0491 21.0352 28.1504 21.5593 28.2518 21.2099H28.3531ZM23.2854 19.0258C23.0827 18.4142 22.7786 19.3752 23.2854 19.0258C23.1841 19.2005 23.1841 19.3752 22.9814 19.3752C22.9814 19.1131 22.88 19.2005 22.88 19.3752H22.7786C22.5759 19.55 22.5759 19.8121 22.6773 20.0742C22.4746 20.0742 22.5759 20.1615 22.4746 20.2489H22.3732C22.4746 20.7731 21.7651 21.2099 22.1705 21.6467C22.2719 21.1225 22.5759 20.8604 22.4746 20.2489C22.6773 20.2489 22.5759 20.1615 22.6773 20.0742H22.7786C22.7786 19.8994 22.7786 19.8121 22.88 19.8121C20.9543 25.7528 18.319 32.7419 16.292 39.0321C17.4069 39.2069 17.7109 38.9448 18.7245 39.0321C21.461 30.2957 25.3125 22.3456 25.9206 13.7839C24.8057 15.2691 23.9949 17.1038 23.2854 19.0258ZM27.6437 14.6576C28.0491 15.007 27.2382 15.007 27.6437 14.6576ZM21.157 38.77C21.2583 39.2069 20.8529 38.8574 21.157 38.77C21.6637 38.4206 21.157 38.2459 21.0556 37.8964C21.2583 37.3722 21.7651 37.0228 21.6637 36.3239C21.9678 36.1491 22.0692 36.3239 22.3732 36.0618V35.4502C22.2719 35.4502 22.0692 35.4502 22.0692 35.3628C22.3732 34.8387 22.2719 33.965 22.7786 33.7029C22.7786 33.7903 22.7786 33.8777 22.88 33.8777C22.9814 33.4408 23.6908 33.004 23.2854 32.4798C22.9814 32.7419 23.1841 33.2661 22.88 33.3535C22.6773 32.8293 23.1841 32.2177 23.3868 31.7809C23.5895 31.7809 23.3868 32.1304 23.5895 32.1304C24.0963 30.9073 24.5017 30.121 24.8057 28.5485C24.0963 29.2474 24.0963 31.1694 23.3868 31.4315C24.8057 26.7138 26.9342 21.8214 27.6437 16.7543C27.745 16.7543 27.745 16.5796 27.6437 16.5796C27.441 16.1428 27.8464 16.0554 27.9477 15.8807C27.745 15.7933 27.5423 15.6186 27.745 15.4439C27.0355 16.929 26.8328 18.7637 26.6301 20.2489C26.4274 20.3362 26.3261 20.1615 26.1233 20.1615C26.1233 20.4236 26.3261 20.511 26.3261 20.7731C25.7179 21.2099 24.9071 23.0445 25.5152 23.9182C25.2112 24.0929 25.1098 23.8308 24.8057 24.0055C23.6908 29.0726 20.8529 34.5766 19.8394 39.1195C20.5488 39.2069 20.7516 38.77 21.0556 38.508C21.0556 38.6827 21.157 38.6827 21.157 38.77ZM23.6908 17.4532C23.7922 17.5406 23.5895 17.4532 23.6908 17.4532C24.1976 17.2785 23.3868 17.1038 23.6908 17.4532ZM21.461 18.1521C21.9678 18.2395 21.461 17.8027 21.461 18.1521ZM23.2854 18.2395C23.2854 18.3269 23.1841 18.2395 23.2854 18.2395ZM26.5288 18.589C27.0355 18.6763 26.5288 18.2395 26.5288 18.589ZM26.4274 19.2879C26.5288 19.7247 26.5288 18.8511 26.4274 19.2879ZM28.2518 19.55C28.3531 19.55 28.1504 19.4626 28.2518 19.55ZM28.1504 19.6373C28.6572 19.6373 27.9477 20.2489 28.1504 19.6373ZM27.9477 20.8604C28.1504 20.7731 28.2518 20.2489 27.9477 20.1615C27.9477 20.511 27.5423 20.6857 27.9477 20.8604ZM21.6637 22.3456C22.0692 22.5203 21.9678 21.8214 21.7651 21.8214C21.8665 22.0835 21.6637 22.0835 21.6637 22.3456ZM19.8394 22.433C19.738 22.433 19.738 22.6077 19.738 22.6951C19.8394 23.2193 19.3326 22.7824 19.738 22.6951C19.8394 22.6951 19.8394 22.5203 19.8394 22.433C20.2448 22.433 19.738 21.9962 19.8394 22.433ZM26.5288 22.5203H26.7315V22.3456H26.5288V22.5203ZM21.5624 23.2193C21.5624 23.0445 22.0692 22.5203 21.5624 22.5203C21.6637 22.8698 21.157 23.0445 21.5624 23.2193ZM18.6231 23.0445V23.3066C18.9272 23.4813 19.0285 22.9572 18.7245 22.9572C18.7245 23.0445 18.7245 23.1319 18.6231 23.0445ZM19.4339 23.3066C19.6367 23.7434 19.6367 22.8698 19.4339 23.3066ZM27.5423 23.7434C27.5423 23.6561 27.745 23.2193 27.5423 23.2193C27.441 23.2193 27.2382 23.6561 27.5423 23.7434ZM18.4204 24.0929C18.4204 24.2676 18.2177 24.1803 18.4204 24.0929C18.6231 24.0055 18.6231 23.6561 18.7245 23.4813C18.4204 23.4813 18.4204 23.8308 18.4204 24.0929ZM21.157 24.2676C21.2583 24.0929 21.5624 23.5687 21.2583 23.4813C21.2583 23.6561 20.9543 24.1803 21.157 24.2676ZM26.3261 23.5687C26.4274 24.0055 26.4274 23.2193 26.3261 23.5687ZM19.2312 24.0055C19.2312 24.0055 19.2312 23.9182 19.3326 23.9182C19.3326 23.8308 19.3326 23.6561 19.1299 23.7434C19.1299 23.8308 19.1299 24.0055 19.2312 24.0055ZM19.0285 24.9665C18.8258 24.6171 19.4339 24.2676 18.8258 24.2676C18.9272 24.4424 18.7245 24.9665 19.0285 24.9665ZM25.9206 24.355V24.5297C26.2247 24.7044 26.3261 24.1803 26.022 24.2676C26.022 24.2676 26.022 24.355 25.9206 24.355ZM18.1163 24.8792C18.1163 24.9665 18.015 24.9665 18.1163 24.8792H18.2177C18.1163 24.5297 18.4204 24.6171 18.4204 24.355C18.015 24.2676 18.2177 24.7044 18.1163 24.8792ZM20.9543 24.9665C20.9543 24.8792 21.2583 24.5297 20.9543 24.5297C20.9543 24.6171 20.6502 24.9665 20.9543 24.9665ZM25.9206 25.1413C25.9206 25.1413 26.2247 24.7918 25.9206 24.7918C25.9206 24.7918 25.6166 25.1413 25.9206 25.1413ZM18.015 25.4907C17.9136 25.316 18.4204 25.1413 18.015 25.0539C18.015 25.1413 17.7109 25.4907 18.015 25.4907ZM20.5488 25.4034C21.0556 25.4907 20.5488 25.0539 20.5488 25.4034ZM25.3125 26.3644C25.8193 26.4517 25.4139 25.8402 25.9206 25.9275C25.6166 25.6654 26.2247 25.316 25.7179 25.316C25.6166 25.6654 25.4139 25.9275 25.3125 26.3644ZM18.5218 26.1023C18.5218 25.9275 18.9272 25.316 18.5218 25.4034C18.6231 25.6654 18.1163 25.9275 18.5218 26.1023ZM26.4274 25.8402C26.4274 25.7528 26.4274 25.6654 26.5288 25.6654C26.5288 25.5781 26.5288 25.4907 26.3261 25.4907C26.3261 25.5781 26.2247 25.7528 26.4274 25.8402ZM17.4069 26.8885C17.8123 27.1506 17.0014 27.0633 17.4069 26.8885H17.5082C17.6096 26.5391 18.015 26.0149 17.8123 25.6654C17.6096 26.1023 17.5082 26.4517 17.4069 26.8885ZM20.3461 25.9275C20.7516 26.277 20.5488 25.5781 20.3461 25.9275ZM20.3461 26.6265C20.2448 26.4517 20.6502 26.277 20.3461 26.1896C20.3461 26.277 20.0421 26.6265 20.3461 26.6265ZM18.1163 26.8885C18.5218 27.1506 17.7109 27.0633 18.1163 26.8885C18.5218 26.7138 18.015 26.277 18.1163 26.8885ZM25.3125 26.6265C25.4139 27.0633 25.4139 26.1896 25.3125 26.6265ZM17.8123 27.6748C18.1163 27.7622 18.1163 27.5001 18.1163 27.238C17.7109 27.1506 18.015 27.5875 17.8123 27.6748ZM19.9407 27.5001C20.0421 27.5875 19.9407 27.4127 19.9407 27.5001ZM16.7987 28.4611C17.2041 28.199 17.4069 27.8495 17.2041 27.5001C17.1028 27.8495 16.9001 28.0243 16.7987 28.4611ZM25.9206 27.7622H26.1233V27.5875H25.9206V27.7622ZM19.8394 27.9369C19.8394 28.0243 19.6367 27.9369 19.8394 27.9369C20.0421 27.8495 19.8394 27.7622 19.8394 27.9369ZM17.6096 28.199C17.8123 28.6358 17.8123 27.7622 17.6096 28.199ZM24.7044 28.4611C24.8057 28.4611 24.7044 28.3737 24.7044 28.4611ZM17.4069 28.5485V28.7232C17.7109 28.8979 17.8123 28.3737 17.5082 28.4611C17.5082 28.4611 17.5082 28.5485 17.4069 28.5485ZM16.596 29.6842C16.4947 29.3347 17.4069 28.7232 16.6974 28.5485C16.9001 29.0726 16.1906 29.4221 16.596 29.6842ZM19.3326 28.9853C19.4339 28.9853 19.3326 28.8979 19.3326 28.9853ZM25.4139 29.0726C25.5152 28.6358 25.3125 29.6842 25.4139 29.0726ZM17.3055 29.16C17.5082 28.6358 17.0014 29.6842 17.3055 29.16ZM17.2041 29.8589C17.2041 29.8589 17.2041 29.7716 17.3055 29.7716C17.3055 29.6842 17.2041 29.5095 17.0014 29.5968C17.1028 29.6842 17.0014 29.8589 17.2041 29.8589ZM16.0892 30.5578C16.3933 30.5578 16.596 30.0336 16.292 29.8589C16.1906 30.0336 16.292 30.3831 16.0892 30.5578ZM19.0285 30.0336C19.0285 29.5968 18.9272 30.6452 19.0285 30.0336ZM16.6974 31.4315C16.7987 31.1694 17.1028 30.6452 16.7987 30.3831C16.9001 30.8199 16.3933 31.2567 16.6974 31.4315ZM15.1771 33.004C14.5689 34.7513 13.5554 37.4596 13.2513 39.1195C13.9608 37.4596 15.1771 34.4892 15.1771 33.004C15.5825 32.3925 16.1906 31.4315 16.0892 30.6452C15.5825 31.082 15.3798 32.3051 15.1771 33.004ZM18.7245 30.9073C19.1299 30.7326 18.4204 31.2567 18.7245 30.9073ZM16.3933 31.7809H16.292C16.0892 32.8293 15.6838 33.2661 15.5825 34.3145C15.9879 33.8777 16.3933 32.6546 16.3933 31.7809C16.596 31.6936 16.3933 31.6936 16.3933 31.7809ZM16.9001 31.7809C17.0014 31.3441 16.7987 32.3925 16.9001 31.7809ZM18.4204 31.7809C18.4204 31.8683 18.319 31.7809 18.4204 31.7809ZM18.4204 32.4798C18.319 32.3925 18.4204 32.1304 18.2177 32.1304C18.1163 32.2177 18.1163 32.4798 18.4204 32.4798ZM17.9136 33.3535C18.015 33.4408 17.8123 33.3535 17.9136 33.3535ZM17.8123 33.7903C17.8123 33.8777 17.7109 33.7029 17.8123 33.7903ZM22.7786 34.2271C22.88 34.3145 22.88 34.2271 22.7786 34.2271C22.6773 34.0524 22.5759 34.2271 22.7786 34.2271ZM13.9608 39.1195C14.7716 37.6343 15.0757 36.1491 15.6838 34.4892H15.3798C14.9743 36.3239 14.1635 37.6343 13.9608 39.1195ZM17.3055 35.0134C17.7109 35.1008 17.5082 34.6639 17.6096 34.5766C17.3055 34.4892 17.5082 34.926 17.3055 35.0134ZM22.3732 35.2755C22.4746 35.2755 22.3732 35.1881 22.3732 35.2755ZM16.9001 36.4112C16.9001 36.4986 16.7987 36.4986 16.9001 36.4112C17.1028 36.3239 17.1028 36.1491 17.2041 35.9744C16.7987 35.887 17.0014 36.2365 16.9001 36.4112ZM16.596 37.6343C16.596 37.6343 16.7987 37.1975 16.596 37.1101C16.6974 37.3722 16.1906 37.5469 16.596 37.6343ZM21.5624 37.8964C21.9678 37.6343 21.2583 38.2459 21.5624 37.8964ZM16.292 38.0711C16.3933 37.6343 16.1906 38.6827 16.292 38.0711ZM20.2448 40.3426C20.3461 40.3426 20.2448 40.5173 20.2448 40.3426C20.2448 40.1679 20.6502 40.1679 20.5488 39.8184C20.2448 39.8184 19.6367 39.6437 19.3326 39.9931C19.9407 40.1679 18.8258 39.9931 19.2312 40.7794C19.5353 40.7794 19.5353 40.43 20.0421 40.6047C20.0421 40.43 20.1434 40.43 20.2448 40.3426ZM17.4069 40.3426C17.4069 40.1679 17.2041 40.0805 17.0014 39.9931C16.4947 40.1679 16.1906 39.9931 15.9879 40.2552C16.4947 40.1679 16.292 40.7794 17.0014 40.6921C17.2041 40.43 16.6974 40.2552 17.0014 40.1679C17.1028 40.3426 17.2041 40.3426 17.2041 40.6047C17.6096 40.7794 18.5218 40.43 18.1163 39.9931C18.1163 40.5173 17.8123 40.0805 17.4069 39.8184C17.2041 40.0805 17.8123 40.2552 17.4069 40.3426ZM20.6502 39.9931C20.7516 39.9931 20.6502 39.9058 20.6502 39.9931ZM27.6437 41.1289C28.0491 41.4783 27.8464 40.7794 27.6437 41.1289ZM19.6367 41.3036C19.738 41.3036 19.738 41.391 19.8394 41.391C19.8394 41.3036 19.8394 41.0415 19.6367 41.1289V41.3036ZM41.1238 41.9151C41.1238 41.7404 41.0225 41.6531 40.9211 41.6531C40.9211 41.8278 40.8197 42.0025 41.1238 41.9151ZM40.4143 41.9151H40.617V41.7404H40.4143V41.9151ZM33.4209 42.1772C33.5222 41.9151 33.2182 42.0025 33.1168 41.8278C33.1168 42.0899 33.2182 42.1772 33.4209 42.1772ZM34.3331 42.0899C34.4344 42.4393 34.4344 41.6531 34.3331 42.0899ZM17.2041 49.7779C17.5082 49.6905 17.2041 49.5158 17.5082 49.2537C17.4069 49.3411 17.2041 49.3411 17.2041 49.1664C17.6096 48.5548 18.319 48.0306 17.9136 47.0696C18.2177 46.9823 18.2177 47.0696 18.5218 46.8949C18.6231 46.1086 18.8258 45.1476 19.2312 44.7108C18.9272 44.6234 18.8258 43.7498 19.3326 43.6624V43.8372C19.4339 44.274 19.0285 43.8372 19.3326 43.8372C19.6367 43.5751 19.6367 42.7888 19.3326 42.6141C19.1299 42.7014 18.8258 42.6141 18.4204 42.7014C17.9136 45.1476 16.4947 46.8949 16.1906 48.9043C15.4811 50.04 14.7716 51.5252 14.4676 53.0977L14.1635 52.8356C13.9608 53.2725 14.3662 53.884 14.1635 53.9714C13.8595 54.0587 14.1635 53.5346 13.7581 53.7093C13.3527 55.806 12.2378 57.2038 11.5283 59.2132C12.0351 58.9511 11.8324 58.9511 12.3391 59.2132C13.15 57.0291 14.5689 54.9324 15.3798 52.923C15.6838 52.923 15.2784 53.4472 15.5825 53.3598C15.5825 53.1851 15.6838 53.0977 15.7852 53.0977C15.8865 52.6609 15.3798 52.8356 15.4811 52.3988C15.7852 52.4862 15.8865 52.6609 16.0892 52.3988C15.7852 52.0494 15.7852 51.2631 16.3933 51.6999C16.7987 51.1757 15.9879 51.3505 16.0892 50.7389C16.3933 50.7389 16.292 51.001 16.3933 51.001C16.7987 50.6515 16.0892 50.5642 16.3933 50.3021C16.596 50.3895 16.6974 50.4768 16.9001 50.5642C16.9001 50.2147 17.1028 50.1274 17.2041 49.7779ZM14.9744 42.8762C13.2513 47.7685 12.5418 52.4862 10.6161 57.1165C11.0215 57.9027 9.90663 58.689 10.5148 59.1258C12.9473 53.7093 15.4811 48.0306 17.3055 42.7888C16.1906 42.6141 15.6838 42.9635 14.9744 42.8762ZM10.1093 48.9043C9.39985 49.8653 8.79173 51.2631 9.2985 52.1367C10.312 49.3411 11.0215 45.7592 11.9337 43.2256H11.5283C11.0215 45.5844 10.2107 46.6328 10.1093 48.9043ZM12.0351 44.4487C12.4405 44.3613 12.8459 43.4003 12.4405 43.313C12.2378 43.7498 12.1364 44.1866 12.0351 44.4487ZM11.5283 46.8949C11.6297 46.0212 12.5418 44.9729 11.9337 44.5361C12.0351 45.4097 11.0215 46.196 11.5283 46.8949ZM11.1229 47.3317C11.6297 47.4191 11.1229 46.9823 11.1229 47.3317ZM11.1229 47.8559C11.4269 47.9433 11.4269 47.3317 11.1229 47.5064V47.8559ZM11.1229 48.2053C11.2242 48.6422 11.2242 47.8559 11.1229 48.2053ZM10.5148 50.4768C10.5148 50.5642 10.312 50.4768 10.5148 50.4768H10.6161C10.8188 50.04 10.8188 49.4284 10.9202 48.9916C10.5148 49.1664 10.4134 50.04 10.5148 50.4768ZM10.1093 52.1367C10.008 51.6125 10.6161 51.1757 10.2107 50.7389C10.1093 51.0884 9.70392 51.962 10.1093 52.1367ZM9.70392 53.0977C9.70392 52.7483 10.2107 52.3115 9.70392 52.2241C9.70392 52.4862 9.50121 52.7483 9.70392 53.0977ZM7.17005 59.3879C7.0687 59.4753 7.17005 59.65 6.96735 59.65C6.76464 59.1258 6.56193 59.9995 6.96735 59.65C7.17005 60.3489 6.56193 59.9121 6.46057 60.0868C6.56193 60.1742 6.76464 60.1742 6.86599 60.2616C6.25786 61.6594 5.64974 62.8825 5.85245 64.193C5.44703 64.3677 5.54838 64.7171 5.44703 65.4161C5.24432 65.5908 5.04161 66.2897 5.34567 66.7265C5.14296 66.5518 4.94026 66.6391 5.04161 66.9012C5.14296 66.9012 5.34567 66.9012 5.34567 66.9886C5.34567 67.3381 4.8389 67.4254 4.73755 67.7749C4.8389 67.8622 5.14296 67.7749 5.14296 67.9496C4.73755 67.9496 4.53484 68.3864 5.04161 68.4738C4.73755 68.6485 4.23077 69.1727 4.73755 69.4348C4.53484 68.9106 5.44703 68.8232 5.04161 68.4738C5.04161 68.2117 5.14296 68.3864 5.24432 68.3864C5.9538 64.4551 6.66328 62.2709 7.17005 59.3879C7.77818 56.767 8.99443 54.845 8.89308 52.3115C8.48766 52.923 8.48766 54.2335 8.08224 54.845C8.58902 55.2818 7.37276 55.7187 7.87954 56.3302C7.67683 56.4176 7.57547 55.9807 7.57547 56.4176C8.08224 57.0291 6.66328 58.689 6.86599 59.3879H7.17005ZM9.39985 53.4472C9.50121 53.5346 9.2985 53.4472 9.39985 53.4472ZM9.09579 54.845C9.2985 54.3208 9.60256 54.1461 9.2985 53.7093C9.39985 54.1461 8.79173 54.4956 9.09579 54.845ZM15.1771 53.9714C15.2784 53.884 15.4811 53.7966 15.1771 53.7093C15.1771 53.7966 14.9744 53.9714 15.1771 53.9714ZM14.873 54.7576C15.2784 54.4956 14.5689 55.1071 14.873 54.7576ZM8.79173 55.806C9.09579 55.806 8.99444 55.4566 9.09579 55.2818C8.79173 55.1945 8.79173 55.4566 8.79173 55.806ZM8.69037 56.0681C9.19714 56.2428 8.69037 55.806 8.69037 56.0681ZM8.1836 58.0775H8.08224C8.08224 58.689 7.57547 58.8638 7.87954 59.3879C7.37276 59.7374 7.57547 60.6984 7.27141 61.2226C7.98089 60.7858 7.57547 59.9995 7.87954 59.3879C8.28495 59.2132 8.08224 58.689 8.1836 58.0775C8.58902 57.9028 8.58902 56.9417 8.48766 56.5049C8.38631 57.0291 8.1836 57.8154 8.1836 58.0775ZM11.3256 59.7374C11.3256 59.65 11.5283 59.5627 11.3256 59.4753C11.3256 59.5627 11.1229 59.7374 11.3256 59.7374ZM11.2242 60.5237C11.3256 60.9605 11.3256 60.0869 11.2242 60.5237ZM7.27141 61.572C7.37276 61.6594 7.27141 61.4847 7.27141 61.572ZM7.17005 62.0089C7.37276 62.3583 7.37276 61.572 7.17005 62.0089ZM6.66328 64.455C6.66328 64.0182 7.37276 63.232 7.0687 62.6204C6.96735 63.1446 6.46057 63.9309 6.66328 64.455ZM6.25786 66.5518C6.35922 65.9402 6.96735 65.3287 6.46057 64.8045C6.35922 65.5034 6.05515 65.9402 6.25786 66.5518ZM3.41994 75.6376C3.92671 75.6376 3.31858 76.2492 3.41994 75.6376ZM3.52129 76.8607C3.62265 76.5986 3.82536 76.4239 3.41994 76.3365C3.52129 76.5113 3.31858 76.8607 3.52129 76.8607ZM4.43348 76.8607C4.94026 76.9481 4.43348 76.5113 4.43348 76.8607ZM3.41994 77.2975C3.41994 77.1228 3.62265 77.0355 3.41994 76.9481C3.41994 77.1228 3.21723 77.2102 3.41994 77.2975ZM4.43348 77.2975C4.73755 77.7344 4.53484 76.9481 4.43348 77.2975ZM4.23077 77.9965C4.63619 78.1712 4.63619 77.5596 4.43348 77.5596C4.43348 77.8217 4.23077 77.8217 4.23077 77.9965ZM3.31858 78.3459C3.62265 78.3459 3.82536 78.1712 3.82536 77.9091C3.52129 77.9091 3.31858 78.0838 3.31858 78.3459ZM4.23077 80.0058C4.33213 79.569 4.12942 80.6174 4.23077 80.0058ZM4.12942 80.4427C4.43348 80.0058 4.33213 80.7921 4.12942 80.4427ZM3.31858 81.2289C3.21723 81.1416 3.41994 80.7047 3.21723 80.7047C3.11587 80.9668 2.91317 81.2289 3.31858 81.2289ZM4.23077 81.7531C4.23077 81.5784 4.43348 81.0542 4.02807 81.1416C4.12942 81.3163 4.02806 81.6658 4.23077 81.7531ZM3.52129 81.9278C3.41994 81.491 3.82536 81.3163 3.41994 81.2289C3.52129 81.5784 3.11587 81.8405 3.52129 81.9278ZM4.12942 82.9762C4.23077 82.7141 4.33213 82.2773 4.12942 82.0152C4.02807 82.1026 3.92671 82.8015 4.12942 82.9762ZM3.41994 82.1899C3.52129 82.6268 3.52129 81.7531 3.41994 82.1899ZM3.41994 82.9762C3.82536 82.9762 3.31858 83.413 3.41994 82.9762C3.31858 82.7141 3.82536 82.6268 3.41994 82.5394C3.41994 82.6268 3.21723 82.6267 3.21723 82.7141C3.31858 82.8015 3.21723 82.9762 3.41994 82.9762ZM4.12942 84.7235C4.02807 84.1993 4.33213 83.5004 4.02807 83.1509C4.12942 83.8499 3.724 84.2867 4.12942 84.7235ZM3.52129 83.8499C3.52129 83.7625 3.724 83.3257 3.41994 83.3257C3.21723 83.5004 3.21723 83.8499 3.52129 83.8499ZM3.31858 84.374C3.41994 84.0246 3.21723 85.0729 3.31858 84.374ZM4.02807 84.8982C4.43348 86.0339 3.82536 85.9466 4.02807 84.8982ZM29.3667 14.1334C29.3667 13.7839 29.2653 14.8323 29.3667 14.1334ZM29.164 14.9197C29.5694 15.2691 29.3667 14.5702 29.164 14.9197ZM27.6437 16.5796C27.441 16.5796 27.5423 16.7543 27.6437 16.7543V16.5796ZM28.9613 17.1911C29.3667 16.8417 28.8599 16.4049 28.9613 17.1911ZM28.9613 17.1911C28.9613 17.3659 28.7586 17.2785 28.9613 17.1911ZM22.88 19.3752H22.9814C22.9814 19.55 23.0827 19.8121 22.88 19.8121V19.3752ZM28.3531 21.2099C28.5559 21.1225 28.3531 21.0352 28.3531 21.2099ZM25.9206 21.7341C26.3261 22.0835 26.1233 21.3846 25.9206 21.7341ZM25.8193 21.9962C26.2247 22.433 25.5152 22.6077 25.8193 21.9962ZM25.5152 22.6951C25.7179 22.6951 25.8193 22.7824 25.8193 22.9572C25.5152 23.0445 25.6166 22.8698 25.5152 22.6951ZM25.1098 24.5297C25.6166 24.6171 25.1098 24.2676 25.1098 24.5297ZM24.8057 25.4907C25.2112 25.4907 24.7044 25.0539 24.8057 25.4907ZM24.8057 25.4907C24.9071 25.9275 24.5017 25.4907 24.8057 25.4907ZM23.6908 28.7232C23.8935 29.16 23.8935 28.2864 23.6908 28.7232ZM23.0827 29.8589H23.3868V30.2957H23.0827V29.8589ZM22.7786 31.1694C22.88 31.2567 22.6773 31.082 22.7786 31.1694ZM22.1705 33.2661C22.2719 33.3535 22.0692 33.1787 22.1705 33.2661ZM21.7651 35.7997H22.0692V35.9744C21.9678 35.9744 21.9678 36.0618 21.8665 36.0618H21.6637V35.887C21.7651 35.887 21.7651 35.7997 21.7651 35.7997ZM26.6301 40.1679C26.022 39.9058 25.8193 40.5173 26.6301 40.1679ZM28.9613 41.0415C28.6572 40.8668 28.5559 40.6047 28.4545 40.2552C28.7586 40.43 28.8599 40.6921 28.9613 41.0415ZM32.2046 40.3426C32.61 40.692 32.4073 39.9931 32.2046 40.3426ZM33.0154 40.3426C33.5222 40.43 33.8263 40.5173 33.9276 40.8668C33.4209 40.8668 33.3195 40.3426 33.1168 40.8668C32.7114 41.0415 32.9141 40.43 33.0154 40.3426ZM36.9683 40.5173C37.3737 40.43 37.0696 40.8668 37.3737 40.8668C37.171 41.2162 37.0696 40.6047 36.9683 40.5173ZM30.7857 40.6047C30.9884 40.6047 31.0897 40.6921 31.2924 40.6921C31.2924 40.8668 30.5829 40.8668 30.7857 40.6047ZM38.4886 40.6921C38.4886 40.6047 38.6913 40.6047 38.7927 40.6047V40.8668C38.6913 40.8668 38.5899 40.6921 38.4886 40.6921ZM39.1981 40.6047C39.5021 40.6047 39.5021 40.9541 39.2994 41.1289C38.9954 41.1289 39.2994 40.7794 39.1981 40.6047ZM31.9005 40.7794C32.306 41.1289 32.1033 40.43 31.9005 40.7794ZM32.4073 40.7794C32.5087 41.2162 32.5087 40.3426 32.4073 40.7794ZM34.3331 40.7794C34.4344 41.2162 34.4344 40.3426 34.3331 40.7794ZM37.6778 40.6921C37.7791 40.7794 37.8805 40.7794 38.0832 40.7794C38.0832 40.9541 37.6778 40.8668 37.6778 41.1289C37.3737 41.0415 37.8805 40.8668 37.6778 40.6921ZM36.7656 40.8668C36.6642 40.7794 36.5629 40.9541 36.7656 40.8668ZM36.7656 40.8668C36.8669 41.0415 36.8669 40.8668 36.7656 40.8668ZM40.5157 41.0415C40.8197 41.391 40.7184 40.6921 40.5157 41.0415ZM42.3401 41.0415C42.5428 41.0415 42.6441 41.2162 42.5428 41.391C42.3401 41.391 42.3401 41.2162 42.3401 41.0415ZM42.8468 41.0415C42.9482 41.0415 43.0495 41.2162 43.0495 41.391C42.8468 41.391 42.8468 41.2162 42.8468 41.0415ZM48.2186 41.7404C48.32 42.1772 48.32 41.3036 48.2186 41.7404ZM45.2793 42.1772C45.3807 42.6141 45.3807 41.7404 45.2793 42.1772ZM44.6712 42.352C45.178 42.4393 44.6712 42.0899 44.6712 42.352ZM18.015 46.4581C18.319 46.196 18.015 47.4191 18.015 46.4581ZM16.7987 47.8559C17.3055 47.9433 16.7987 47.5064 16.7987 47.8559ZM17.2041 49.7779C17.0014 49.7779 16.9001 49.6032 17.0014 49.6032C17.1028 49.6032 17.2041 49.6905 17.2041 49.7779ZM5.85245 63.6688C5.9538 64.1056 5.9538 63.232 5.85245 63.6688ZM5.75109 64.7171C5.85245 64.8045 5.64974 64.6298 5.75109 64.7171ZM5.44703 65.4161C5.64974 65.4161 5.54838 65.5908 5.44703 65.4161ZM3.31858 75.2008C3.41994 75.2882 3.21723 75.1135 3.31858 75.2008ZM3.21723 87.257V87.5191C3.01452 87.5191 2.91317 87.4318 2.91317 87.257H3.21723ZM49.1308 63.7561C48.7254 63.494 48.2186 63.232 47.7118 63.0572C44.4685 64.193 42.2387 66.6391 39.4008 67.6002C39.1981 68.3864 38.7927 68.998 37.9818 69.1727C34.9412 72.842 31.9005 76.4239 29.468 80.53C29.164 82.5394 28.0491 83.7625 26.1233 84.374C21.0556 82.3647 23.9949 75.4629 24.5017 71.5315C25.5152 69.5222 25.6166 66.4644 26.7315 64.8919C31.1911 65.7655 29.3667 69.8716 28.8599 72.6673C31.1911 69.6095 34.1303 67.076 37.0696 64.455C39.8062 62.4457 46.6983 59.65 49.1308 63.7561ZM41.6306 63.1446C42.3401 63.232 42.3401 62.7078 42.8468 62.8825C42.5428 62.271 43.6577 62.7951 43.759 62.1836C43.0495 62.3583 42.4414 62.4457 42.1374 62.3583C36.5629 65.154 32.1033 69.6969 29.0626 74.5893C32.61 70.2211 36.4615 66.115 41.6306 63.1446ZM44.0631 62.2709C44.1644 62.3583 43.9617 62.2709 44.0631 62.2709ZM44.5699 63.0572C44.5699 63.232 44.4685 63.3193 44.3671 63.4067C44.7726 63.3193 45.2793 63.3193 45.3807 62.8825C45.0766 62.9699 44.8739 63.0572 44.5699 63.0572ZM43.5563 63.8435C43.9617 63.8435 44.0631 63.5814 44.2658 63.4067C43.8604 63.232 43.2522 63.4067 43.5563 63.8435ZM40.7184 65.154C41.6306 65.0666 42.2387 64.1056 43.0495 64.1056C42.9482 63.8435 43.455 63.494 42.9482 63.5814C42.3401 64.193 41.3265 64.5424 40.7184 65.154ZM42.1374 64.8045C42.5428 64.5424 41.8333 65.154 42.1374 64.8045ZM39.9076 65.8529C40.2116 65.6781 40.617 65.5908 40.7184 65.2413C40.4143 65.416 39.6035 65.5034 39.9076 65.8529ZM38.5899 67.3381C38.7927 66.9886 39.4008 66.9012 39.4008 66.3771H39.0967C39.1981 66.9012 38.1845 66.9886 38.5899 67.3381ZM37.5764 68.037C37.5764 68.037 37.5764 67.9496 37.6778 67.9496C37.6778 67.8622 37.6778 67.6875 37.475 67.7749C37.475 67.8622 37.475 68.037 37.5764 68.037ZM41.6306 63.1446C41.5292 63.1446 41.4279 63.0572 41.6306 63.0572V63.1446ZM38.0832 64.9792C38.1845 65.0666 37.9818 64.9792 38.0832 64.9792ZM23.8935 67.3381C24.4003 67.4254 23.8935 66.9886 23.8935 67.3381ZM67.0706 73.8904C67.1719 73.8904 67.1719 73.803 67.1719 73.803C67.0706 73.6283 67.0706 73.803 67.0706 73.8904C66.6651 74.1525 65.8543 74.3272 65.9557 74.6766C65.5502 75.1134 64.9421 75.1135 64.334 75.4629C60.1785 77.7344 54.908 85.2477 49.0295 83.2383C48.8267 82.6268 48.4213 82.1899 48.2186 81.6658C48.2186 81.2289 47.8132 81.8405 47.8132 81.491C47.5091 81.0542 47.3064 80.6174 47.0024 80.1806C48.4213 74.0651 52.2728 70.0463 56.0229 65.7655C57.4419 64.8045 59.1649 63.6688 61.4961 63.6688C63.7259 64.1056 66.3611 64.7171 66.7665 67.076C66.9692 68.3864 66.3611 69.2601 65.7529 70.1337C66.5638 70.1337 67.476 69.4348 68.7936 69.6095C70.618 70.2211 70.922 73.4535 69.6044 74.5893C70.5166 75.8997 68.6922 77.8217 69.4017 79.3069C79.5372 77.9091 85.213 71.7063 91.3956 66.5518C90.6862 71.1821 85.213 73.5409 81.6656 76.686C79.3344 77.8217 77.6114 78.8701 75.0776 79.8311C75.2803 80.0932 75.6857 79.569 76.0911 79.6564C75.9897 79.9185 75.5843 79.8311 75.5843 80.0932C79.7399 78.8701 82.3751 75.8997 85.9225 74.5019C85.8211 74.2398 85.5171 74.5893 85.3144 74.5019C85.5171 74.2398 85.8211 73.7156 86.0238 74.3272C86.3279 73.7156 87.4428 72.6673 88.8618 72.4052C84.5035 76.9481 78.929 80.0058 72.2396 82.7141C71.3274 82.8015 70.618 82.5394 69.7058 82.5394C68.1855 82.1026 67.6787 81.4037 66.9692 80.2679C66.8678 78.5207 66.7665 75.8124 67.0706 73.8904ZM50.9552 79.9185C56.1243 77.7344 59.3676 74.0651 63.5231 71.0073C62.7123 70.3958 63.2191 68.2991 63.0164 67.5128C56.327 69.3474 53.8945 74.8514 50.9552 79.9185ZM90.1794 68.5612C90.4834 68.1243 90.2807 68.9106 90.1794 68.5612ZM89.5713 69.1727C89.774 69.3474 89.9767 69.0853 90.078 68.8232C89.774 68.9106 89.4699 68.9106 89.5713 69.1727ZM77.3074 77.4723C77.206 77.2976 77.0033 77.2976 77.0033 77.4723C76.6992 77.3849 76.5979 77.5596 76.4965 77.7344C76.8006 77.7344 76.9019 77.5596 77.0033 77.4723H77.3074C77.1046 77.8217 76.5979 77.9091 76.1925 78.0838C76.1925 77.9091 76.6992 77.7344 76.1925 77.7344C75.9897 78.0838 75.787 78.608 75.1789 78.1712C75.0776 78.4333 74.7735 78.8701 75.1789 78.8701C80.6521 76.4239 85.9225 73.1914 89.4699 69.2601C85.5171 72.1431 81.8683 75.2008 77.3074 77.4723ZM65.3475 71.5315C66.057 71.7063 64.9421 72.0557 65.3475 71.5315ZM64.5367 72.2304C64.638 72.4052 65.3475 72.0557 64.9421 71.881C64.9421 72.1431 64.4353 71.881 64.5367 72.2304ZM63.9286 72.7546C63.6245 72.6673 63.4218 73.1041 63.6245 73.1041C63.6245 72.9294 63.9286 73.0167 63.9286 72.7546C64.0299 72.7546 64.0299 72.842 64.1313 72.842C64.2326 72.7546 64.2326 72.6673 64.2326 72.4925C64.0299 72.4925 63.9286 72.5799 63.9286 72.7546ZM64.5367 73.0167C64.5367 73.1041 64.4353 73.0167 64.5367 73.0167ZM61.5974 74.4145C62.0028 74.1524 61.2933 74.764 61.5974 74.4145ZM65.3475 74.6766C65.9557 74.8514 65.4489 74.4145 65.3475 74.6766ZM64.8408 75.0261C65.3475 75.1134 64.8408 74.6766 64.8408 75.0261ZM75.6857 78.1712C75.787 78.2586 75.5843 78.1712 75.6857 78.1712ZM50.2457 78.3459C50.7525 78.5206 50.2457 78.0838 50.2457 78.3459ZM50.1444 78.8701C49.9416 79.1322 49.4349 79.6564 49.6376 79.8311C49.8403 79.569 50.1444 79.3943 50.1444 78.8701C50.3471 78.8701 50.1444 78.7827 50.1444 78.8701ZM74.2667 80.2679C74.4694 80.1806 74.8748 80.1806 74.9762 79.9185C74.5708 79.9185 74.1654 79.9185 74.2667 80.2679ZM49.5362 80.1806C49.9416 79.9185 49.2322 80.53 49.5362 80.1806ZM74.4694 80.6174C74.8749 80.4426 75.3816 80.4427 75.483 80.0932C75.0776 80.1806 74.6721 80.2679 74.4694 80.6174ZM49.5362 80.6174C49.7389 80.2679 49.0295 80.2679 49.0295 80.4427C49.2322 80.4427 49.3335 80.6174 49.5362 80.6174ZM89.6726 71.0073C89.9767 71.1821 89.5713 71.5315 89.2672 71.4442C89.3685 71.2694 89.6726 71.2694 89.6726 71.0073ZM89.4699 71.7936C89.5713 72.1431 88.7604 72.3178 88.8618 71.881C89.0645 71.9683 89.0645 71.7063 89.4699 71.7936ZM88.2536 71.9684C88.355 72.4052 88.355 71.6189 88.2536 71.9684ZM76.9019 79.3069C76.9019 79.569 76.4965 79.4817 76.4965 79.6564C76.1925 79.569 76.6992 79.3069 76.9019 79.3069ZM113.085 62.9699C111.16 64.455 111.058 67.5128 109.335 68.4738C108.525 70.1337 108.22 72.1431 106.802 73.0167C105.687 77.3849 102.139 81.1416 100.72 85.2477C98.9972 86.9076 96.7674 89.5285 93.5241 88.3054C92.0038 86.9076 90.4834 84.8982 91.2943 82.1026C91.3956 81.7531 91.2943 81.4037 91.1929 81.1416C91.6997 79.0448 92.2065 76.7734 92.3078 74.5893C93.4227 71.0947 93.3214 66.9886 93.9295 63.6688C95.8552 63.6688 96.6661 64.9792 97.2742 65.7655C96.4634 67.3381 96.9701 69.7843 97.1728 71.9684C96.2607 74.9387 96.1593 79.0448 95.5512 82.7141C100.315 77.1228 102.646 69.4348 107.511 63.8435C108.22 61.3099 110.349 59.0385 112.579 57.2038C113.896 57.1165 114.707 57.5533 115.518 57.9028C115.518 60.3489 113.896 61.2226 113.085 62.9699ZM113.39 58.5143C113.795 58.2522 113.085 58.8638 113.39 58.5143ZM113.795 58.6017C113.998 58.6017 114.302 58.689 114.2 58.4269H113.998C113.998 58.5143 113.896 58.6017 113.795 58.6017ZM111.058 58.9511H111.261V58.7764H111.058V58.9511ZM108.322 66.9886C108.018 66.9886 107.207 66.7265 107.308 67.2507C107.612 67.4254 107.916 66.9886 108.018 67.2507C106.396 67.9496 105.18 70.2211 104.977 71.5315C105.18 71.4442 105.18 71.1821 105.585 71.0947C105.788 71.6189 104.876 71.881 105.484 71.9684C106.396 70.3084 107.41 68.7359 108.322 66.9886C109.133 66.4644 109.133 65.2413 110.045 64.8045C109.944 64.8919 109.741 65.3287 110.146 65.2413C109.741 64.1056 110.957 63.494 111.261 62.4457C111.16 62.3583 110.957 62.3583 110.957 62.1836C111.058 62.0962 110.957 61.6594 111.362 61.6594C111.362 61.8341 111.362 62.0962 111.565 62.0962C111.667 61.9215 112.072 61.8341 111.971 61.3973H112.173C112.376 61.1352 112.68 60.9605 112.781 60.611C112.579 60.611 112.275 60.6984 112.275 60.5237C112.275 60.3489 112.376 60.1742 112.477 60.0868C112.68 60.1742 112.579 60.5237 112.984 60.4363C113.085 59.9995 112.68 60.0868 112.579 59.8248C112.883 59.4753 113.39 59.3006 113.592 58.9511C113.085 58.9511 113.187 59.3879 112.781 59.3879C112.781 59.2132 112.781 59.0385 112.579 59.0385C112.173 59.7374 111.058 60.1742 111.362 61.1352C111.261 61.3099 110.856 61.2226 110.653 61.3973C110.957 62.533 109.437 62.7078 109.741 63.5814C108.829 64.455 108.119 65.5908 107.612 66.8139C108.018 66.8139 108.018 66.3771 108.322 66.3771V66.9886ZM113.795 59.3879C113.896 59.4753 113.795 59.3006 113.795 59.3879ZM113.187 59.9121C113.187 59.9995 113.085 59.9995 113.187 59.9121C113.39 59.8248 113.187 59.7374 113.187 59.9121ZM110.146 60.611V60.8731H110.45C110.552 60.6984 110.552 60.611 110.349 60.5237C110.248 60.611 110.248 60.6984 110.146 60.611ZM109.842 61.0479C109.944 61.4847 109.944 60.611 109.842 61.0479ZM109.133 62.0962C109.133 62.1836 109.031 62.0962 109.133 62.0962ZM108.22 64.2803C108.423 64.0182 108.525 63.5814 108.626 63.1446C108.423 63.1446 108.423 63.0572 108.22 63.0572C108.626 63.494 107.612 64.0182 108.22 64.2803ZM107.308 64.3677C107.511 64.8045 107.308 65.2413 107.004 65.4161C107.714 65.6781 108.018 64.455 107.511 64.2803C107.511 64.3677 107.41 64.455 107.308 64.3677ZM105.687 67.7749C105.078 68.2991 104.572 69.3474 104.572 70.0463C105.078 69.4348 105.484 68.6485 105.687 67.7749H106.193C106.193 66.8139 107.004 66.4644 107.106 65.5908C105.991 65.9402 106.396 67.076 105.687 67.7749ZM104.065 70.8326C104.369 70.92 104.572 70.3958 104.369 70.3084C104.268 70.4832 103.964 70.4832 104.065 70.8326ZM103.355 72.0557C103.558 71.7936 104.065 71.2694 103.862 71.0073C103.66 71.2694 103.153 71.7936 103.355 72.0557ZM102.747 75.2882H102.646C102.443 75.725 102.038 76.0745 102.038 76.686H101.936C101.835 76.7734 101.734 76.9481 101.835 77.2102C102.241 77.2975 101.937 76.8607 102.038 76.686C102.342 76.2492 102.747 75.9871 102.747 75.2882C102.95 75.2882 102.849 74.9387 103.153 75.0261C103.355 75.3755 103.051 75.6376 103.254 75.8124C103.862 74.6766 104.977 73.3662 105.078 72.1431C104.572 72.5799 105.18 71.7063 104.876 71.6189C104.166 72.9294 103.153 73.803 102.747 75.2882ZM105.18 73.4535C105.281 73.3662 105.484 73.0167 105.18 73.0167C105.18 73.1041 104.876 73.4535 105.18 73.4535ZM102.545 73.2788C102.646 73.3662 102.443 73.2788 102.545 73.2788ZM103.964 75.0261V75.2008H104.268C104.268 75.1135 104.268 75.1135 104.369 75.1135V74.8514H104.065C104.065 74.9387 104.065 75.0261 103.964 75.0261ZM102.241 77.2102C102.747 77.2102 102.95 76.5113 102.747 76.2492C102.545 76.5113 102.443 76.9481 102.241 77.2102ZM111.971 61.3973C111.565 61.2226 111.768 61.7468 111.362 61.6594C111.565 61.3099 111.565 60.7858 112.173 60.611C112.173 60.6984 112.275 60.7858 112.275 60.8731C112.173 61.0479 111.869 61.0479 111.971 61.3973ZM110.552 62.4457C110.754 62.4457 110.754 62.533 111.058 62.533C110.856 62.7078 110.754 63.0572 110.45 63.1446C110.552 62.7951 110.45 62.6204 110.552 62.4457ZM113.085 62.9699C113.288 62.9699 113.187 63.0572 113.085 62.9699ZM110.045 63.3193C110.45 63.232 110.248 63.6688 110.146 63.7561C110.045 63.7561 110.045 63.494 110.045 63.3193ZM109.437 64.1056H109.741V64.5424H109.437V64.1056ZM108.829 65.154C109.133 65.2413 109.031 65.9402 108.626 65.7655C108.423 65.4161 108.93 65.5034 108.829 65.154ZM108.525 66.2023C108.626 66.115 108.423 66.0276 108.525 66.2023ZM108.525 66.2023C108.525 66.2897 108.322 66.2897 108.525 66.2023ZM110.754 66.7265C110.957 66.8139 110.856 66.9012 110.754 66.9886C110.552 66.9886 110.754 66.8139 110.754 66.7265ZM106.7 68.8232C107.004 68.8232 106.903 69.3474 106.497 69.3474C106.497 69.0853 106.599 68.9106 106.7 68.8232ZM106.193 69.4348C106.7 69.4348 106.497 70.1337 106.092 70.0463C105.991 69.7842 105.991 69.6095 106.193 69.4348ZM105.687 70.5705C105.991 70.2211 105.889 70.92 105.687 70.5705ZM104.47 72.5799C104.977 72.6673 104.369 73.6283 103.964 73.6283C104.166 73.2788 104.369 72.9294 104.47 72.5799ZM103.964 73.9777C103.964 74.3272 103.558 74.3272 103.457 74.6766C103.254 74.5019 103.457 73.803 103.964 73.9777ZM140.958 63.1446C140.654 64.6298 140.958 65.5908 139.336 66.3771C138.12 68.998 135.181 70.2211 132.951 71.9684C131.025 72.3178 128.694 73.4535 126.87 72.3178C125.755 73.6283 125.653 75.2008 125.147 77.1228C129.302 79.6564 135.383 76.3365 139.64 75.2008C141.972 74.0651 144.505 72.9294 147.141 71.9684C147.445 71.6189 148.053 71.5315 148.357 71.2694C148.661 72.0557 146.532 72.4925 145.823 73.1041C145.823 73.2788 146.026 73.1914 146.228 73.1914C143.39 75.3755 140.248 76.686 136.498 77.8217C137.208 77.8217 138.728 77.8217 139.64 77.3849C139.539 77.8217 139.134 77.9091 138.728 78.0838C138.728 78.2586 139.336 77.9965 139.134 78.3459C137.917 78.6954 136.802 79.7437 136.194 79.3943C135.688 79.569 136.093 79.7437 135.89 80.0058C133.154 81.0542 131.329 81.7531 127.782 81.7531C122.917 80.8795 122.309 76.7734 122.917 73.0167C124.741 68.2117 128.694 62.8825 134.269 60.5237C135.282 60.0869 136.498 60.2616 137.512 60.2616C138.323 60.3489 138.525 60.8731 139.235 60.9605C139.438 62.0089 140.248 62.533 140.958 63.1446ZM133.052 64.7171C133.458 64.8045 133.762 64.1056 134.066 64.455C132.343 65.5908 130.823 66.8139 129.505 68.2991C132.85 66.8139 135.89 65.0666 137.816 62.4457C136.093 63.0572 134.066 63.494 133.052 64.7171ZM132.444 65.0666C132.546 65.154 132.444 64.9792 132.444 65.0666ZM131.633 78.608C131.937 78.6954 132.343 78.4333 132.241 79.1322C132.748 78.8701 133.052 78.6954 133.559 79.1322C133.762 78.9575 133.356 78.608 133.762 78.608C134.471 78.608 135.688 78.1712 136.296 77.8217C134.775 78.5206 132.85 78.0838 131.633 78.608ZM148.762 71.0947C148.965 71.0947 148.762 71.0073 148.762 71.0947ZM148.762 71.0947C148.762 71.2694 148.56 71.1821 148.762 71.0947ZM139.336 77.9091C139.539 78.3459 139.539 77.5596 139.336 77.9091ZM160.215 82.5394C160.215 82.7141 160.317 82.8015 160.317 82.9762C160.519 82.9762 160.519 82.8888 160.621 82.8015C160.925 82.8888 161.026 83.2383 161.33 83.413C166.499 82.3647 169.641 79.569 173.189 77.2102C178.256 73.4535 183.223 69.6969 188.088 65.7655H188.595C188.899 65.8529 188.595 65.2413 189 65.3287C188.392 66.6391 186.061 67.9496 185.655 69.3474C184.54 69.2601 182.919 71.0073 182.311 71.7936C182.209 72.0557 182.007 71.6189 181.905 71.6189V72.1431C181.398 71.9683 180.993 72.1431 180.892 72.5799C180.284 72.7546 179.574 73.2788 179.675 73.6283C179.27 73.7156 178.56 73.9777 178.256 74.5019C178.56 74.5893 178.763 73.8904 178.865 74.4145C178.662 74.5893 178.459 74.6766 178.054 74.6766C178.054 74.5019 177.952 74.6766 178.054 74.6766C178.155 75.2882 177.344 74.5893 177.648 75.2882C177.344 75.3755 177.243 75.2882 177.142 75.2008C177.04 75.8124 175.621 76.3365 175.621 77.0355C175.52 76.9481 175.418 77.0355 175.418 76.8607C175.52 76.9481 175.52 76.8607 175.52 76.7734C175.418 76.7734 175.418 76.8607 175.418 76.8607C174.81 77.3849 174.202 77.7344 173.695 78.2586C174 78.7827 174.202 77.7344 174.81 78.1712C174.912 77.4723 176.331 76.4239 177.243 76.686C176.736 77.3849 175.824 77.647 175.317 78.3459C176.635 77.7344 177.547 76.686 178.865 76.0745C177.142 77.9091 174.506 79.0448 172.783 80.8795C173.087 81.1416 173.695 80.7048 173.797 80.4427C174.101 80.6174 173.695 81.4037 173.391 81.0542C173.29 81.3163 173.29 81.5784 173.594 81.5784C171.162 83.5878 167.918 85.6845 164.067 85.9466C158.594 85.1603 155.148 81.2289 154.945 75.8124C155.046 75.5503 154.742 75.6376 154.641 75.4629C155.35 72.9294 155.857 70.6579 154.945 68.2991C156.871 66.7265 156.465 63.7561 157.276 61.6594C157.58 61.8341 157.175 62.1836 157.276 62.533C157.681 62.1836 157.783 61.1352 157.276 60.9605C160.114 48.7295 164.371 36.848 169.337 26.0149C173.087 20.3362 176.432 13.5219 182.513 9.50311C189.304 9.93993 188.291 17.4532 186.567 21.472C186.567 24.0055 185.554 26.4517 184.338 28.4611C180.588 38.4206 176.128 46.1086 171.364 55.5439C171.162 55.7187 170.959 55.8934 170.655 56.0681C170.655 56.3302 170.858 56.4176 170.756 56.767C167.513 61.0479 165.587 66.8139 160.418 69.7843C159.506 70.7453 159.709 73.1041 158.999 73.9777C159.404 76.4239 158.087 80.0932 160.215 82.5394ZM181.398 13.6092C181.196 13.5219 181.297 13.1724 180.993 13.2598C180.892 13.5219 181.297 13.4345 181.297 13.6966C180.588 14.046 180.486 14.9197 179.675 15.1818C179.777 15.007 179.777 14.9197 179.574 14.8323C179.169 15.1818 178.966 15.5312 178.662 15.968C178.763 16.3175 179.169 15.4439 179.27 15.8807C178.56 16.7543 177.547 18.4142 176.635 18.5016C177.243 19.4626 175.723 20.2489 175.418 21.0352C175.317 21.3846 175.925 21.2099 175.824 21.6467C175.52 21.6467 175.317 21.6467 175.216 21.7341C175.114 21.9962 175.317 21.9962 175.418 22.0835C175.216 22.0835 175.216 22.2583 174.912 22.1709C175.52 22.8698 173.594 24.0055 174.608 24.7044C174.304 24.7918 174.202 25.1413 173.695 25.1413C173.594 25.4034 174 25.316 174 25.4907C172.682 28.199 170.858 30.7326 170.148 33.7029C168.729 35.6249 168.932 37.8964 166.905 39.469C166.803 39.8184 167.513 39.6437 167.513 39.9058C167.107 40.692 167.107 42.0025 166.297 42.7014C166.297 44.0992 165.283 45.6718 165.08 47.157C164.979 47.3317 164.472 47.157 164.472 47.3317C165.08 47.4191 164.776 48.6422 164.067 48.5548C164.168 50.04 163.763 52.3988 162.546 53.6219C163.155 54.1461 162.546 54.6703 162.851 55.2818C162.141 55.1945 162.344 56.1555 162.04 56.6797C162.445 56.767 162.242 55.9807 162.546 56.3302C162.04 58.1648 161.026 61.0479 160.925 62.9699C168.121 52.923 173.29 41.4783 178.865 31.082C180.588 25.8402 183.121 21.1225 183.73 15.8807C184.439 14.9197 183.932 13.3471 184.135 12.0367C183.02 11.5125 181.905 13.085 181.398 13.6092ZM180.689 13.7839C180.689 13.8713 180.588 13.7839 180.689 13.7839ZM185.655 14.8323H185.858C185.858 14.6576 186.061 14.6576 185.959 14.4829H185.655V14.8323ZM185.757 15.2691C185.554 15.7933 185.554 16.2301 185.655 16.7543C185.351 16.929 185.453 16.7543 185.149 16.7543C185.351 17.1038 185.25 17.7153 185.655 17.8901C185.554 16.667 186.263 16.0554 185.757 15.2691C185.757 14.8323 185.25 15.1818 185.757 15.2691ZM177.851 17.0164C178.256 16.929 178.358 16.4922 178.56 16.2301C178.054 16.2301 177.952 16.667 177.851 17.0164ZM167.614 31.6062C170.351 26.5391 173.797 20.8604 176.432 16.5796C172.885 21.1225 170.148 25.9275 167.614 31.6062ZM185.25 18.9384C185.149 18.5016 185.453 18.4142 185.554 18.0648C185.25 18.0648 185.149 18.0648 185.047 17.9774C184.844 18.2395 184.844 18.8511 185.25 18.9384ZM184.034 21.0352C184.236 21.0352 184.338 20.8604 184.439 21.0352C184.54 21.3846 183.932 21.2099 184.034 21.5593C184.946 21.7341 184.642 20.6857 184.946 20.1615C184.743 20.0742 184.743 19.7247 184.439 19.7247C183.831 20.1615 184.439 20.511 184.034 21.0352ZM185.149 21.0352C185.149 20.7731 185.858 20.2489 185.25 20.1615C185.351 20.511 184.844 20.8604 185.149 21.0352ZM174 21.8214C173.898 22.2583 174.912 22.0835 174.81 21.7341C174.304 21.8214 174.405 21.8214 174 21.8214ZM184.034 22.5203C184.135 22.3456 184.135 22.0835 184.338 21.9962C184.034 21.9962 184.034 21.7341 183.73 21.8214C183.628 22.2583 183.831 22.433 184.034 22.5203ZM184.54 22.3456C185.047 22.5203 184.54 22.0835 184.54 22.3456ZM183.73 23.3066C183.324 23.2193 183.02 23.6561 183.324 23.7434C183.426 23.394 183.527 23.8308 183.73 23.8308C183.932 23.5687 183.932 23.0445 184.034 22.6951C183.831 22.6951 183.628 22.6951 183.527 22.6077C183.223 22.8698 183.628 23.1319 183.73 23.3066ZM184.338 23.6561H184.54V23.394H184.338V23.6561ZM173.493 23.8308C173.391 23.8308 172.986 23.5687 172.986 23.8308C173.189 23.7434 173.391 24.1803 173.493 23.8308ZM182.919 24.2676C183.223 24.2676 183.426 24.2676 183.426 24.0929C183.223 23.9182 182.919 23.9182 182.919 24.2676ZM172.581 24.9665C172.885 25.1413 173.189 24.6171 172.885 24.6171C172.885 24.7918 172.581 24.7044 172.581 24.9665ZM183.324 24.8792C183.426 24.5297 183.121 24.5297 182.817 24.6171C182.817 24.8792 183.121 24.8792 183.324 24.8792ZM183.426 25.4034C183.831 25.316 184.236 24.9665 183.932 24.6171C183.527 24.6171 183.527 25.0539 183.426 25.4034ZM182.007 26.3644C182.311 26.5391 182.615 26.8885 182.817 26.3644C182.716 26.277 182.412 26.3644 182.513 26.0149C182.919 25.9275 183.02 25.5781 183.324 25.316C183.02 25.2286 182.716 25.1413 182.513 24.9665C182.513 25.6654 182.209 25.7528 182.007 26.3644ZM172.986 25.9275C173.493 26.0149 172.986 25.6654 172.986 25.9275ZM183.121 26.4517H183.324V26.277H183.121V26.4517ZM177.75 35.9744H177.648C177.648 36.2365 177.446 36.2365 177.243 36.2365C177.648 37.0228 176.736 37.0228 177.04 37.5469C176.635 37.4596 176.635 37.7217 176.432 37.809C176.331 38.1585 176.533 38.1585 176.533 38.4206C176.432 38.5953 176.027 38.4206 176.027 38.5953C176.331 39.2069 175.824 39.9931 175.317 40.1679C175.114 40.7794 175.52 40.8668 175.621 41.1289C174.709 41.0415 174.608 41.7404 174.709 42.2646C174.304 42.2646 174.202 42.4393 174.101 42.6141C174.202 42.7014 174.304 42.7888 174.304 42.9635C173.493 44.3613 171.466 45.7592 172.479 47.4191C172.277 47.4191 172.276 47.5938 171.972 47.5064V47.157C170.047 49.079 169.439 52.2241 167.513 54.1461C167.614 54.7576 166.905 55.1071 167.614 55.2818C167.918 55.0197 167.411 55.1071 167.513 54.7576C167.817 54.4956 168.222 54.4082 168.526 54.1461C168.526 53.0977 169.54 52.0494 170.047 51.001C170.452 50.9136 170.148 51.5252 170.553 51.4378C170.553 51.0884 170.756 51.001 170.959 50.8263C170.858 51.1757 171.364 50.9136 171.263 50.6515C171.06 50.6515 171.06 50.8263 170.959 50.8263C170.959 50.3894 170.959 50.04 171.364 50.04C171.567 49.7779 170.858 49.6905 171.162 49.5158C171.567 49.5158 171.466 49.8653 171.871 49.7779C172.276 49.4284 171.567 49.6032 171.668 49.2537C171.972 48.9916 171.871 49.3411 172.277 49.3411C171.972 48.7295 172.175 48.2927 172.277 47.9433C172.378 48.0306 172.479 48.0306 172.479 48.2053C172.479 48.3801 172.277 48.4674 172.277 48.7295C174 46.7202 174.709 43.4877 176.432 41.7404C176.128 41.391 176.331 41.2162 176.736 41.1289C176.837 40.8668 176.635 40.7794 176.635 40.5173C177.04 40.43 177.142 40.0805 177.04 39.8184C177.344 39.731 177.344 39.3816 177.75 39.3816C177.75 39.0321 177.446 39.1195 177.344 38.8574C177.446 38.6827 177.851 38.8574 177.851 38.5953C177.75 38.3332 177.446 38.5953 177.344 38.4206C177.344 37.9838 177.75 38.3332 177.952 38.3332C178.256 37.5469 178.358 37.0228 178.662 36.4112C178.358 36.3239 178.459 36.7607 178.054 36.6733C178.054 36.4112 178.459 36.2365 178.054 36.1491C178.054 36.4112 177.648 36.1491 177.75 35.9744C178.155 36.1491 177.75 35.5376 178.256 35.7123C178.155 35.887 178.256 36.0618 178.459 35.9744C178.763 35.9744 178.358 35.3628 178.865 35.3628C178.865 35.6249 178.459 36.0618 178.865 36.2365C178.865 35.7123 179.371 35.6249 179.27 34.926C178.966 35.1008 178.865 35.0134 178.662 34.7513C179.574 34.6639 178.459 34.4892 178.865 34.2271C179.27 34.2271 179.169 34.7513 179.675 34.7513C179.574 33.8777 180.486 33.7029 180.385 33.0914C180.284 32.9167 179.979 33.0914 179.878 32.8293C179.979 32.6546 180.081 32.3925 180.284 32.3051C180.385 32.6546 180.081 32.6546 180.182 32.8293C180.588 32.9167 180.79 32.8293 180.993 32.6546C180.892 32.3925 180.892 32.043 180.79 31.6936C181.094 31.5188 181.398 31.8683 181.398 31.2567C180.892 31.2567 180.588 31.082 180.385 31.082C180.385 30.6452 181.196 30.8199 181.398 30.5578C181.196 30.7326 181.196 31.1694 181.5 31.1694C181.601 30.7326 181.601 30.2084 181.702 29.8589C181.5 29.7716 181.5 29.9463 181.398 29.9463C181.196 29.5095 181.702 29.6842 181.702 29.5095C181.196 29.4221 182.108 28.4611 182.209 28.9853C182.108 28.7232 182.919 28.0243 182.311 27.7622C182.108 27.8495 182.412 28.4611 181.905 28.3737C182.311 28.1116 181.601 27.238 182.513 27.238C182.513 26.8885 181.905 27.0633 182.108 26.5391C181.702 27.0633 180.689 28.4611 181.601 28.6358C181.5 28.8106 181.5 29.0726 181.297 29.0726C181.196 29.0726 181.094 28.9853 180.892 28.9853C180.689 30.0336 180.081 30.7326 179.878 31.7809C179.675 31.9557 179.371 31.9557 179.169 32.1304C179.067 32.4798 179.371 32.4798 179.27 32.7419C178.966 32.6546 179.067 33.004 178.865 33.004C179.169 33.4408 178.459 33.6156 178.56 34.2271H178.054C178.155 34.8387 177.648 34.8387 177.648 35.2755C177.75 35.4502 177.75 35.7123 177.75 35.9744ZM181.905 29.5095H182.108V29.3347H181.905V29.5095ZM179.473 30.4705C179.574 30.9073 179.574 30.0336 179.473 30.4705ZM179.169 30.9073C179.27 30.9073 179.169 30.8199 179.169 30.9073ZM165.79 35.7997C166.601 34.6639 167.107 33.3535 167.614 32.043C167.614 31.9557 167.513 31.8683 167.411 31.9557C166.905 33.1787 166.094 34.6639 165.79 35.7997ZM181.094 32.2177C181.094 32.2177 181.196 32.1304 181.297 32.1304C181.196 32.043 181.196 31.8683 180.993 31.9557C180.993 32.043 180.993 32.2177 181.094 32.2177ZM168.02 33.1787C168.324 33.6156 168.222 32.8293 168.02 33.1787ZM167.31 35.1881C167.31 35.2755 167.209 35.1008 167.31 35.1881ZM165.283 36.848C165.79 36.848 165.993 36.2365 165.79 35.9744C165.384 36.0618 165.384 36.4986 165.283 36.848ZM166.803 36.4112C166.905 36.4986 166.702 36.4112 166.803 36.4112ZM165.182 37.2849H165.486V37.0228H165.182V37.2849ZM164.472 38.9448C164.878 38.8574 165.283 38.1585 164.979 37.809C164.776 38.1585 164.574 38.5079 164.472 38.9448ZM165.688 38.9448C165.993 39.1195 165.993 38.5079 165.688 38.5953V38.9448ZM165.486 39.6437H165.688V39.2942H165.486V39.6437ZM164.067 39.8184C164.371 39.9058 164.675 39.469 164.371 39.3816C164.371 39.5563 164.067 39.469 164.067 39.8184ZM166.398 39.8184C166.499 39.8184 166.398 39.731 166.398 39.8184ZM164.27 40.6921C164.168 40.5173 164.371 40.0805 163.965 40.1679C163.763 40.3426 163.864 40.7794 164.27 40.6921ZM165.182 40.6921C165.182 40.6921 165.182 40.6047 165.283 40.6047C165.283 40.5173 165.283 40.3426 165.08 40.43C165.08 40.5173 165.08 40.6921 165.182 40.6921ZM162.851 43.1382C163.459 42.7014 163.965 41.2162 163.763 40.8668C163.56 41.4783 163.155 42.2646 162.851 43.1382ZM165.79 42.9635H166.094V42.7014H165.79V42.9635ZM162.749 43.4877C162.851 43.4877 162.952 43.5751 163.053 43.5751C162.952 43.4003 163.053 43.2256 162.749 43.2256V43.4877ZM162.242 45.1476C162.344 44.7108 163.256 44.0119 162.648 43.7498C162.648 44.1866 162.04 44.7108 162.242 45.1476ZM161.837 46.1086C162.141 46.1086 162.242 45.8465 162.242 45.5844C161.837 45.4971 161.938 45.9339 161.837 46.1086ZM161.33 48.2927C161.432 47.8559 161.736 47.6812 161.837 47.2443C161.634 47.2443 161.634 47.0696 161.432 47.157C161.533 47.5938 160.823 48.118 161.33 48.2927ZM162.851 49.079C163.256 49.2537 163.256 48.6422 162.851 48.8169V49.079ZM160.823 49.6032H161.026V49.2537H160.823V49.6032ZM162.749 49.8653H163.053V49.6032H162.749V49.8653ZM161.938 49.7779C162.344 50.2147 161.33 50.1274 161.938 49.7779ZM163.763 49.8653C163.864 50.3021 163.864 49.4284 163.763 49.8653ZM161.432 51.6999C161.533 51.7873 161.33 51.6999 161.432 51.6999ZM169.945 51.8746H170.148V51.6125H169.945V51.8746ZM170.452 52.0494C170.655 52.1367 170.959 51.6999 170.655 51.6125C170.655 51.8746 170.351 51.7873 170.452 52.0494ZM169.439 53.0977C169.54 52.7483 169.844 52.4862 169.945 52.0494C169.54 52.1367 169.236 52.8356 169.439 53.0977ZM169.945 53.0977C170.351 53.0104 170.249 52.5735 170.452 52.3988C169.945 52.3988 169.945 52.6609 169.945 53.0977ZM160.418 54.7576C160.621 55.1945 160.621 54.3208 160.418 54.7576ZM158.796 57.2038C158.898 57.1165 159.1 56.5049 158.594 56.5923C158.695 56.9417 158.29 57.1165 158.796 57.2038ZM162.04 56.9417C162.141 57.0291 161.938 56.9417 162.04 56.9417ZM158.492 57.4659H158.796V57.2912H158.492V57.4659ZM157.175 63.0572C157.276 63.1446 157.073 63.0572 157.175 63.0572ZM186.466 67.6002C186.77 67.9496 186.669 67.2507 186.466 67.6002ZM185.959 67.7749C186.263 67.3381 186.162 68.1243 185.959 67.7749ZM186.365 67.9496C186.466 68.037 186.263 67.9496 186.365 67.9496ZM185.351 68.3864C185.757 68.3864 186.061 68.037 185.655 67.9496C185.655 68.2117 185.351 68.1243 185.351 68.3864ZM184.946 68.7359C185.047 69.1727 185.047 68.2991 184.946 68.7359ZM155.958 73.0167C156.06 73.1041 155.857 73.0167 155.958 73.0167ZM155.958 73.4535C156.06 73.8904 156.06 73.0167 155.958 73.4535ZM155.958 73.8904C155.958 74.0651 155.857 74.0651 155.857 74.1524C156.161 74.3272 156.161 73.803 155.958 73.8904C156.06 73.4535 155.553 73.803 155.958 73.8904ZM156.06 74.5893C155.958 74.5893 155.958 74.4145 155.857 74.4145C155.654 74.5893 156.06 74.8514 156.06 74.5893ZM155.756 75.8124C156.263 75.9871 155.756 75.5503 155.756 75.8124ZM155.756 76.0745C155.756 76.1618 155.654 75.9871 155.756 76.0745ZM156.465 77.2102C156.465 76.8607 156.364 77.9091 156.465 77.2102ZM156.668 78.1712C156.668 77.9965 156.769 77.7344 156.567 77.7344C156.364 77.9091 156.364 78.0838 156.668 78.1712ZM156.567 78.2586C156.972 78.6954 156.263 78.6954 156.567 78.2586ZM172.479 79.1322C173.087 79.1322 173.29 78.7827 173.594 78.608C173.391 78.608 173.493 78.4333 173.391 78.3459C173.087 78.608 172.682 78.7827 172.479 79.1322ZM157.276 78.608C157.377 78.608 157.276 78.5207 157.276 78.608ZM175.013 78.608C175.114 78.608 175.013 78.5207 175.013 78.608ZM174.405 78.9575C174.709 78.9575 174.912 78.8701 174.912 78.608C174.709 78.608 174.506 78.7827 174.405 78.9575ZM157.377 78.9575C157.58 79.3943 157.58 78.608 157.377 78.9575ZM172.175 79.3943C172.479 79.0448 172.277 79.7437 172.175 79.3943ZM171.263 79.8311V80.0058H171.567C171.668 79.9185 171.668 79.8311 171.364 79.7437C171.364 79.8311 171.364 79.8311 171.263 79.8311ZM172.378 81.491C172.378 81.3163 172.682 81.4037 172.581 81.0542C172.276 80.9668 172.074 81.4037 172.378 81.491ZM171.972 82.1026C172.276 82.1899 172.682 81.8405 172.378 81.7531C172.378 82.0152 171.871 81.8405 171.972 82.1026ZM172.479 82.1026C172.783 81.7531 172.682 82.452 172.479 82.1026ZM171.972 82.452C172.378 82.1899 171.668 82.8015 171.972 82.452ZM167.31 83.413C167.716 83.3257 169.033 83.0636 168.526 82.8015C168.324 83.1509 167.513 83.0636 167.31 83.413ZM170.047 83.3257C170.351 83.2383 170.553 83.1509 170.655 82.9762C170.249 82.8888 170.148 83.1509 170.047 83.3257ZM165.891 83.413C166.601 83.5004 166.094 83.0636 165.891 83.413ZM184.439 20.1615C184.743 20.2489 184.743 20.4236 184.54 20.5983C184.338 20.5983 184.439 20.3362 184.439 20.1615ZM181.398 29.9463L181.094 30.2084C181.398 30.2957 181.398 30.121 181.398 29.9463ZM180.689 30.4705C181.196 30.5578 180.689 30.121 180.689 30.4705ZM180.284 32.3051C180.284 32.043 180.284 31.7809 180.689 31.7809C180.588 32.043 180.486 32.3051 180.284 32.3051ZM179.777 32.043H180.081V32.2177H179.777V32.043ZM179.574 32.5672C179.777 32.4798 179.777 33.1787 179.473 33.004C179.574 32.9167 179.574 32.7419 179.574 32.5672ZM179.675 33.1787H179.878V33.3535H179.675V33.1787ZM179.27 34.2271C179.574 33.7903 179.473 34.5766 179.27 34.2271ZM177.952 36.9354C178.358 36.6733 177.648 37.2849 177.952 36.9354ZM177.446 37.0228C177.648 37.1101 177.851 37.1975 177.851 37.4596C177.648 37.3722 177.446 37.2849 177.446 37.0228ZM177.851 37.5469V37.8964C177.648 38.0711 177.243 37.809 177.243 37.5469C177.446 37.3722 177.446 37.6343 177.851 37.5469ZM177.04 38.4206C176.837 38.5079 176.939 38.77 176.635 38.77C176.736 38.6827 176.635 38.3332 177.04 38.4206ZM176.432 39.0321C176.736 39.0321 176.736 39.2069 177.04 39.2942C176.939 39.6437 176.229 39.469 176.432 39.0321ZM176.027 39.9058C176.229 39.9058 176.533 39.9058 176.533 40.1679C176.229 40.1679 176.027 40.1679 176.027 39.9058ZM176.128 40.6921C176.331 40.7794 176.128 40.9541 176.128 41.0415C175.925 40.9541 176.128 40.8668 176.128 40.6921ZM175.52 41.9151C175.925 41.6531 175.216 42.2646 175.52 41.9151ZM174.912 42.0025C175.216 42.0025 175.216 42.2646 175.216 42.5267C174.709 42.6141 174.709 42.1772 174.912 42.0025ZM174.912 42.7014C175.216 42.7014 175.317 42.7014 175.317 42.9635H174.912V42.7014ZM174.405 43.1382C174.506 43.0509 174.81 43.0509 174.81 43.1382C174.912 43.4003 174.405 43.4003 174.405 43.1382ZM174.405 43.7498H174.709V44.0119H174.405V43.7498ZM174 44.0992C174.304 44.5361 174.101 43.7498 174 44.0992ZM173.594 44.6234C173.797 44.5361 173.797 44.7108 174 44.7108C174 44.8855 173.391 44.8855 173.594 44.6234ZM173.695 45.3223C174 44.9729 173.898 45.6718 173.695 45.3223ZM173.189 45.4097C173.695 45.5844 173.29 45.1476 173.189 45.4097ZM173.493 45.8465C173.898 45.5844 173.189 46.196 173.493 45.8465ZM172.783 46.9823C172.682 46.6328 172.175 47.0696 172.783 46.9823ZM172.783 46.9823C172.885 46.9823 172.885 46.8949 172.986 46.8075C173.29 46.8949 172.885 47.157 172.885 47.3317C172.682 47.3317 172.682 47.157 172.783 46.9823ZM172.479 47.6812C172.581 47.6812 172.479 47.5938 172.479 47.6812ZM170.756 50.04C170.959 50.4768 170.959 49.6032 170.756 50.04ZM170.756 50.3894C170.756 50.5642 170.756 50.8263 170.452 50.8263C170.249 50.6515 170.452 50.3894 170.756 50.3894ZM188.696 66.5518C188.797 66.9012 188.797 66.115 188.696 66.5518ZM188.392 66.7265C189 67.076 187.682 67.4254 187.581 67.8622C187.277 67.4254 188.088 66.9886 188.392 66.7265ZM163.763 67.4254C164.27 67.6001 163.763 67.1633 163.763 67.4254ZM186.872 68.2991C186.669 68.7359 186.365 69.0853 185.858 69.2601C185.959 68.7359 186.466 68.5612 186.872 68.2991ZM184.946 69.6969C185.047 69.6969 185.149 69.7842 185.149 69.959C184.946 70.0463 184.946 69.8716 184.743 69.8716C184.844 69.7843 184.946 69.7842 184.946 69.6969ZM184.642 70.0463H184.946V70.3084H184.642V70.0463ZM184.338 70.3084C184.439 70.7453 184.439 69.8716 184.338 70.3084ZM184.034 70.7453C184.54 70.8326 184.034 70.3958 184.034 70.7453ZM183.121 71.5315C182.919 71.2694 183.628 71.2694 183.426 71.5315H183.121ZM183.121 71.5315C183.121 71.7063 183.02 71.7936 182.919 71.881C182.716 71.881 182.817 71.3568 183.121 71.5315ZM184.642 71.6189C184.946 71.7063 184.642 72.0557 184.439 71.9684C184.439 71.7936 184.642 71.7936 184.642 71.6189ZM183.831 71.881C184.338 71.9683 183.831 71.5315 183.831 71.881ZM183.324 71.9684C183.426 72.0557 183.223 71.9684 183.324 71.9684ZM182.817 72.0557H183.223C183.02 72.1431 183.121 72.4925 182.817 72.4052V72.0557ZM184.135 72.0557H184.439V72.3178C184.338 72.2304 184.338 72.3178 184.338 72.4052H184.034V72.1431C184.135 72.2304 184.135 72.1431 184.135 72.0557ZM180.993 72.5799C181.196 72.4925 180.993 72.4925 180.993 72.5799ZM181.601 72.842C181.601 72.5799 181.702 72.4925 182.007 72.4925C182.007 72.7546 181.905 72.842 181.601 72.842ZM182.817 72.4925H183.426C182.919 72.9293 182.412 73.3662 181.905 73.7156C181.5 73.803 181.601 73.5409 181.398 73.5409C181.905 73.2788 181.905 73.4535 182.108 72.842C182.311 72.842 182.311 73.0167 182.513 73.0167C182.817 72.9294 182.209 72.842 182.311 72.5799C182.615 72.5799 182.919 72.9293 182.817 72.4925ZM180.892 72.5799H180.993C180.993 72.6673 180.892 72.7546 180.892 72.5799ZM181.601 72.842C181.702 73.1041 181.5 73.1914 181.094 73.1041C181.196 72.9294 181.297 72.7546 181.601 72.842ZM180.385 73.1041C180.892 73.1914 180.385 72.842 180.385 73.1041ZM183.223 73.3662C181.5 75.4629 178.358 77.2976 176.027 79.3069C176.027 79.4817 176.331 79.3069 176.432 79.2196C176.331 79.9185 174.608 80.53 174.405 81.2289C174.202 81.2289 174.304 80.8795 174 80.9668C174.304 80.53 174.304 80.2679 174.202 79.8311C174.608 80.0058 174.506 79.9185 174.912 80.0058C175.317 79.9185 174.608 79.9185 174.81 79.6564C177.648 77.5596 180.486 75.4629 183.223 73.3662ZM175.317 79.8311C175.52 79.9185 175.824 79.569 175.52 79.4817C175.52 79.6564 175.317 79.6564 175.317 79.8311ZM174.709 80.53C174.81 80.6174 174.608 80.53 174.709 80.53ZM180.993 73.6283C181.398 73.5409 181.196 73.9777 181.601 73.8904C181.398 74.1525 181.094 74.3272 180.892 74.5893C180.689 74.5019 180.486 74.4145 180.486 74.1524C180.79 73.9777 180.79 74.2398 181.094 74.1524C181.196 73.8904 180.892 73.9777 180.993 73.6283ZM180.182 74.1524C180.283 74.5893 180.283 73.7156 180.182 74.1524ZM180.689 74.764C180.284 74.6766 180.182 74.6766 179.777 74.764C179.675 74.3272 180.689 74.5019 180.689 74.764ZM179.169 74.5893H179.473V74.764H179.169V74.5893ZM178.966 75.2008C178.763 75.2008 178.662 75.1135 178.662 74.9387C178.865 74.9387 178.966 74.9387 179.067 75.0261C179.067 75.1134 178.966 75.1135 178.966 75.2008ZM179.574 75.1135C180.081 75.2008 179.979 74.9387 180.385 74.9387C180.385 75.1135 180.081 75.0261 180.182 75.2882C179.979 75.2882 179.473 75.4629 179.574 75.1135ZM179.574 75.1135C179.473 74.9387 179.371 75.1135 179.574 75.1135ZM178.358 75.2008C178.56 75.3755 178.763 75.4629 178.865 75.725C178.358 75.8124 178.459 75.4629 178.358 75.2008ZM178.966 75.2008C179.067 75.2008 179.27 75.2882 179.169 75.4629H178.966V75.2008ZM179.27 75.6376C179.675 75.9871 179.473 75.2882 179.27 75.6376ZM177.952 75.8124H178.256V76.1618H177.851V75.9871C177.952 75.9871 177.952 75.8997 177.952 75.8124ZM154.641 75.9871H154.844V76.1618H154.641V75.9871ZM176.837 76.2492H177.142V76.5113H176.837V76.2492ZM177.243 76.2492H177.75C177.648 76.4239 177.547 76.5986 177.243 76.5986V76.2492ZM177.851 78.1712C178.155 78.2586 177.75 78.608 177.446 78.4333C177.446 78.2586 177.851 78.3459 177.851 78.1712ZM176.837 78.7827C177.344 78.8701 176.939 79.2196 176.635 79.2196C176.533 78.9575 176.837 78.9575 176.837 78.7827ZM159.607 80.9668C160.013 80.9668 160.013 81.4037 160.114 81.5784C159.709 81.5784 159.607 81.3163 159.607 80.9668ZM173.797 81.2289C174.101 81.1416 174.101 81.3163 174.101 81.491H173.695C173.797 81.4037 173.797 81.3163 173.797 81.2289ZM160.621 82.8015C160.418 82.7141 160.418 82.6268 160.215 82.5394C160.215 82.2773 160.114 82.1026 160.013 81.9278C160.317 81.6657 160.519 82.452 160.621 82.8015Z" fill="#046E85"/>
</svg>
